<?xml version="1.0" encoding="UTF-8" standalone="no"?>
<svg
   xmlns:dc="http://purl.org/dc/elements/1.1/"
   xmlns:cc="http://creativecommons.org/ns#"
   xmlns:rdf="http://www.w3.org/1999/02/22-rdf-syntax-ns#"
   xmlns:svg="http://www.w3.org/2000/svg"
   xmlns="http://www.w3.org/2000/svg"
   xmlns:sodipodi="http://sodipodi.sourceforge.net/DTD/sodipodi-0.dtd"
   xmlns:inkscape="http://www.inkscape.org/namespaces/inkscape"
   inkscape:version="1.0 (4035a4fb49, 2020-05-01)"
   sodipodi:docname="logo_warbel.svg"
   id="svg991"
   version="1.1"
   viewBox="0 0 511 88"
   height="88pt"
   width="511pt">
  <metadata
     id="metadata997">
    <rdf:RDF>
      <cc:Work
         rdf:about="">
        <dc:format>image/svg+xml</dc:format>
        <dc:type
           rdf:resource="http://purl.org/dc/dcmitype/StillImage" />
        <dc:title></dc:title>
      </cc:Work>
    </rdf:RDF>
  </metadata>
  <defs
     id="defs995" />
  <sodipodi:namedview
     inkscape:current-layer="svg991"
     inkscape:window-maximized="1"
     inkscape:window-y="-8"
     inkscape:window-x="-8"
     inkscape:cy="79.806879"
     inkscape:cx="451.54159"
     inkscape:zoom="2.139227"
     inkscape:guide-bbox="true"
     showguides="true"
     showgrid="false"
     id="namedview993"
     inkscape:window-height="1012"
     inkscape:window-width="1920"
     inkscape:pageshadow="2"
     inkscape:pageopacity="0"
     guidetolerance="10"
     gridtolerance="10"
     objecttolerance="10"
     borderopacity="1"
     bordercolor="#666666"
     pagecolor="#ffffff">
    <sodipodi:guide
       id="guide999"
       orientation="1,0"
       position="459.55825,62.403565" />
  </sodipodi:namedview>
  <g
     style="fill:#ffffff"
     id="#ffffffff">
    <path
       style="fill:#ffffff"
       id="path916"
       d=" M 76.49 10.48 C 80.77 6.55 86.28 1.96 92.50 3.36 C 94.85 3.53 94.99 6.14 94.88 7.96 C 94.96 12.16 92.04 15.48 89.59 18.58 C 79.40 30.91 68.90 42.99 58.30 54.97 C 58.53 52.59 59.33 50.33 60.03 48.07 C 61.59 42.69 63.42 37.39 65.29 32.12 C 68.13 24.53 71.12 16.67 76.49 10.48 Z"
       opacity="1.00"
       fill="#ffffff" />
    <path
       style="fill:#ffffff"
       id="path918"
       d=" M 66.89 4.82 C 67.79 4.81 69.58 4.79 70.48 4.77 C 70.96 7.49 68.49 9.15 67.00 11.03 C 58.46 21.36 49.82 31.61 41.41 42.05 C 42.06 37.62 44.06 33.51 45.22 29.19 C 45.52 28.19 45.83 27.19 46.15 26.20 C 46.79 24.11 47.49 22.05 48.13 19.96 C 50.93 13.61 56.06 7.91 62.83 5.78 C 64.19 5.51 65.56 5.24 66.89 4.82 Z"
       opacity="1.00"
       fill="#ffffff" />
    <path
       style="fill:#ffffff"
       id="path920"
       d=" M 25.25 38.26 C 29.49 30.67 34.85 23.74 40.71 17.34 C 39.29 21.15 38.81 25.22 38.13 29.21 C 37.65 31.13 37.41 33.09 37.14 35.05 C 35.73 43.49 34.27 52.03 34.50 60.62 C 42.34 49.20 50.54 38.02 58.66 26.80 C 60.64 24.15 62.54 21.42 64.80 18.99 C 63.83 23.87 61.40 28.32 60.09 33.12 C 59.78 34.13 59.48 35.15 59.19 36.17 C 57.09 42.62 55.35 49.19 53.82 55.80 C 53.55 57.21 53.28 58.61 52.91 60.00 C 52.62 61.69 52.37 63.39 52.09 65.08 C 51.25 69.40 50.49 73.76 50.23 78.17 C 49.90 79.57 49.66 80.99 49.53 82.43 C 44.87 82.70 40.24 81.88 35.90 80.20 C 27.43 76.52 21.76 68.04 20.37 59.07 C 19.33 51.79 21.74 44.54 25.25 38.26 Z"
       opacity="1.00"
       fill="#ffffff" />
    <path
       style="fill:#ffffff"
       id="path922"
       d=" M 126.97 18.49 C 132.41 18.57 137.86 18.42 143.30 18.54 C 147.86 26.97 151.08 36.15 155.29 44.80 C 155.53 45.34 156.01 46.41 156.25 46.95 C 157.20 49.14 158.24 51.31 158.97 53.60 C 159.43 53.56 160.36 53.47 160.82 53.43 C 163.09 49.29 165.98 45.38 167.77 41.04 C 166.30 37.65 164.39 34.47 162.78 31.14 C 162.25 30.09 161.72 29.05 161.19 28.01 C 160.76 27.09 160.34 26.17 159.94 25.23 C 165.32 25.25 170.71 25.19 176.10 25.29 C 176.44 26.17 176.80 27.05 177.17 27.93 C 180.93 36.50 185.10 44.88 188.75 53.50 C 189.12 53.55 189.87 53.65 190.25 53.70 C 196.05 41.95 201.98 30.27 207.81 18.53 C 212.56 18.49 217.32 18.55 222.08 18.45 C 221.39 20.45 220.31 22.28 219.22 24.08 C 211.98 37.28 204.49 50.34 197.29 63.57 C 196.88 65.04 195.15 64.61 194.03 64.73 C 189.31 64.68 184.58 64.73 179.86 64.69 C 178.32 61.52 176.56 58.46 175.09 55.25 C 174.11 55.46 172.86 55.39 172.48 56.58 C 170.76 59.18 169.32 61.95 167.51 64.49 C 162.20 65.01 156.81 64.56 151.48 64.70 C 144.13 50.74 136.58 36.89 129.17 22.96 C 128.33 21.53 127.55 20.05 126.97 18.49 Z"
       opacity="1.00"
       fill="#ffffff" />
    <path
       sodipodi:nodetypes="cccccccccccccccccc"
       style="fill:#ffffff"
       id="path924"
       d="m 278.48,18.39 c 10.15,0.05 20.31,0.02 30.46,0.02 2.35,0.02 4.74,0.03 7.04,0.59 1.31,0.39 2.64,0.74 3.96,1.12 6.81947,3.27118 7.89208,6.699689 7.49,13.27 -1.67,4.31 -6.04,6.87 -10.61,6.44 3.8,2.41 8.57,4.75 9.66,9.55 0.37,5.16 0.03,10.35 0.17,15.53 -4.7,-0.03 -9.4,-0.14 -14.1,-0.08 -1.3997,-14.043249 1.1854,-19.279848 -12.85,-19.19 0.25,-2.47 0.13372,-5.022093 0.42,-7.55 3.26,-1.01 7.2,0.81 10.14,-1.44 3.48,-2.92 0.92,-9.06 -3.34,-9.31 -4.43,-0.14 -8.87,-0.1 -13.29,0.08 0.44235,12.574605 -0.11669,25.644853 -0.11395,37.478139 -1.52,-0.1 -2.89605,0.141861 -4.39605,-0.02814 -3.55,-0.08 -7.09,-0.05 -10.64,-0.02 0.04,-15.49 0.03,-30.97 0,-46.459999 z"
       opacity="1.00"
       fill="#ffffff" />
    <path
       sodipodi:nodetypes="cccccccccccccccccc"
       style="fill:#ffffff"
       id="path926"
       d="m 336.56,18.42 c 11.15,0 22.29,-0.02 33.44,0.01 4.72,-0.02 9.9,2.16 12.04,6.6 2.52,6.12 -0.19,14.57 -7.28,15.94 5.16,0.71 9.49,4.8 10.48,9.92 0,1.09 0.01,2.17 0.03,3.26 -0.82,6.54 -7.37,10.47 -13.56,10.43 -11.7,0.11 -23.42,0.03 -35.12,0.04 0,-15.4 0.04,-30.8 -0.03,-46.2 m 14.96,9.01 c 0,9.76 0.14,19.52 -0.07,29.27 6.05246,0.522858 15.71034,1.478228 17.92,-4.5 0.27,-3.18 -1.43,-6.03 -4.19,-7.53 -2.64,-0.4 -5.32,-0.41 -7.99,-0.35 -0.04,-1.96 -0.06,-3.91 -0.07,-5.87 3.42,0 7.64,0.57 9.97,-2.58 1.91,-3.03 0.16,-6.64 -2.73,-8.25 -4.27,-0.32 -8.56,-0.13 -12.84,-0.19 z"
       opacity="1.00"
       fill="#ffffff" />
    <path
       sodipodi:nodetypes="ccccccccc"
       style="fill:#ffffff"
       id="path928"
       d="m 392.74,18.48 c 13.99,-0.17 27.98,0.02 41.97,-0.1 -0.02,3.04 -0.02,6.07 -0.03,9.1 -8.82,-0.08 -17.64,0 -26.46,-0.06 0.12,9.62 -0.09,19.24 0.11,28.86 8.82,-0.05 17.63,-0.09 26.45,0.01 -0.1,2.98 -0.08,5.97 -0.19,8.95 -13.94544,-0.534096 -28.14188,0.105065 -41.87,-0.176162 0.11,-15.38 0.05,-31.203838 0.02,-46.583838 z"
       opacity="1.00"
       fill="#ffffff" />
    <path
       sodipodi:nodetypes="cccccccccccccccc"
       style="fill:#ffffff"
       id="path930"
       d="m 223.21,37.12 c 3.14,-6.25 6.79,-12.25 9.78,-18.58 5.68,-0.26 11.36,-0.08 17.04,-0.1 5.08,9.81 9.95,19.73 15.14,29.48 0.52,1.07 1.06,2.14 1.59,3.21 2.42,4.51 4.51,9.19 7.13,13.6 -5.37,0.21 -10.73,0.01 -16.1,0.14 -3.48,-7.21 -6.5,-14.63 -9.97,-21.84 -1.22,-2.71 -2.44,-5.42 -3.68,-8.12 -1.21,-2.02 -1.25,-5.49 -4.19,-5.65 -4.08,9.01 -8.59,17.81 -12.72,26.8 -0.25,0.52 -0.74,1.57 -0.98,2.1 -0.25,0.5 -0.74,1.5 -0.98,2 -0.75,1.52 -1.47,3.06 -2.12,4.63 -5.44139,0.222051 -10.07275,0.179114 -15.04,-0.1 5.3,-9.04 9.87,-18.49 15.1,-27.57 z"
       opacity="1.00"
       fill="#ffffff" />
    <path
       sodipodi:nodetypes="ccccccccc"
       style="fill:#ffffff"
       id="path932"
       d="m 444.62,18.4 c 5.08,0.04 9.85825,0.113954 14.93825,0.143954 0,3.877294 0.0899,5.106639 0.22175,8.286046 -0.01,10.063583 0.12601,18.668563 -0.03,28.78 8.48,0.33 16.97,0.07 25.45,0.14 0.0478,3.639768 -0.0795,4.29302 -0.0123,9.110115 -13.43688,0.01762 -28.393,0.275548 -40.55767,-0.02011 0.01,-15.48 0.01,-30.96 -0.01,-46.44 z"
       opacity="1.00"
       fill="#ffffff" />
    <path
       style="fill:#ffffff"
       id="path934"
       d=" M 76.97 38.87 C 82.70 31.93 89.13 24.86 97.84 21.78 C 101.89 20.76 106.92 20.72 109.99 24.00 C 111.93 25.79 112.49 28.45 113.27 30.86 C 113.33 32.94 113.34 35.02 113.21 37.09 C 112.49 39.70 112.03 42.39 110.91 44.88 C 105.88 57.39 94.34 65.56 83.15 72.20 C 82.66 72.47 81.69 73.02 81.21 73.29 C 79.19 74.31 77.15 75.30 75.10 76.26 C 72.44 77.28 69.77 78.30 67.09 79.28 C 66.53 79.41 65.41 79.66 64.85 79.79 C 63.28 80.28 61.68 80.67 60.10 81.12 C 57.81 81.39 55.52 81.75 53.29 82.34 C 53.20 79.61 54.88 77.33 55.74 74.84 C 61.54 62.19 67.71 49.42 76.97 38.87 Z"
       opacity="1.00"
       fill="#ffffff" />
    <path
       style="fill:#ffffff"
       id="path936"
       d=" M 418.19 36.41 C 423.33 36.42 428.46 36.43 433.60 36.41 C 433.59 39.45 433.58 42.49 433.57 45.53 C 428.46 45.47 423.35 45.47 418.24 45.52 C 418.22 42.49 418.21 39.45 418.19 36.41 Z"
       opacity="1.00"
       fill="#ffffff" />
  </g>
  <text
     transform="scale(1.1998322,0.83344986)"
     id="text1003"
     y="93.368294"
     x="124.64509"
     style="font-style:normal;font-weight:normal;font-size:35.995px;line-height:1.25;font-family:sans-serif;fill:#ffffff;fill-opacity:1;stroke:none;stroke-width:0.899874;"
     xml:space="preserve"><tspan
       style="font-style:normal;font-variant:normal;font-weight:bold;font-stretch:normal;font-size:16.7976px;font-family:'Futura Md BT';-inkscape-font-specification:'Futura Md BT Bold';stroke-width:0.899874;fill:#ffffff;"
       y="93.368294"
       x="124.64509"
       id="tspan1001"
       sodipodi:role="line">ESPECIALISTAS EN TRANSMISION</tspan></text>
</svg>
