<?xml version="1.0" encoding="utf-8" standalone="no"?>
<!DOCTYPE svg PUBLIC "-//W3C//DTD SVG 1.1//EN"
  "http://www.w3.org/Graphics/SVG/1.1/DTD/svg11.dtd">
<svg xmlns:xlink="http://www.w3.org/1999/xlink" width="576pt" height="432pt" viewBox="0 0 576 432" xmlns="http://www.w3.org/2000/svg" version="1.1">
 <metadata>
  <rdf:RDF xmlns:dc="http://purl.org/dc/elements/1.1/" xmlns:cc="http://creativecommons.org/ns#" xmlns:rdf="http://www.w3.org/1999/02/22-rdf-syntax-ns#">
   <cc:Work>
    <dc:type rdf:resource="http://purl.org/dc/dcmitype/StillImage"/>
    <dc:date>2025-04-04T09:59:28.204825</dc:date>
    <dc:format>image/svg+xml</dc:format>
    <dc:creator>
     <cc:Agent>
      <dc:title>Matplotlib v3.8.3, https://matplotlib.org/</dc:title>
     </cc:Agent>
    </dc:creator>
   </cc:Work>
  </rdf:RDF>
 </metadata>
 <defs>
  <style type="text/css">*{stroke-linejoin: round; stroke-linecap: butt}</style>
 </defs>
 <g id="figure_1">
  <g id="patch_1">
   <path d="M 0 432 
L 576 432 
L 576 0 
L 0 0 
z
" style="fill: #ffffff"/>
  </g>
  <g id="axes_1">
   <g id="patch_2">
    <path d="M 447.296477 224.04 
C 447.296477 198.683393 441.181924 173.696755 429.472931 151.205491 
C 417.763938 128.714226 400.802189 109.374657 380.030478 94.831841 
C 359.258766 80.289024 335.283238 70.967337 310.143289 67.659697 
C 285.00334 64.352057 259.432587 67.154986 235.606119 75.830061 
L 289.568477 224.04 
z
" style="fill: #ff9999"/>
   </g>
   <g id="patch_3">
    <path d="M 235.606119 75.830061 
C 209.113941 85.475706 185.68625 102.050333 167.772358 123.821103 
C 149.858465 145.591873 138.105197 171.772698 133.74133 199.626435 
L 289.568477 224.04 
z
" style="fill: #66b3ff"/>
   </g>
   <g id="patch_4">
    <path d="M 133.74133 199.626435 
C 130.610103 219.61246 131.352959 240.015527 135.929311 259.720926 
C 140.505663 279.426326 148.830623 298.068537 160.449363 314.629052 
L 289.568477 224.04 
z
" style="fill: #99ff99"/>
   </g>
   <g id="patch_5">
    <path d="M 160.449363 314.629052 
C 170.690775 329.226423 183.333851 341.981918 197.839993 352.352147 
C 212.346134 362.722376 228.506383 370.55796 245.632308 375.525099 
L 289.568477 224.04 
z
" style="fill: #ffcc99"/>
   </g>
   <g id="patch_6">
    <path d="M 245.632308 375.525099 
C 257.267082 378.899604 269.251984 380.922495 281.349785 381.55373 
C 293.447586 382.184964 305.577934 381.42035 317.500719 379.275021 
L 289.568477 224.04 
z
" style="fill: #c2c2f0"/>
   </g>
   <g id="patch_7">
    <path d="M 317.500719 379.275021 
C 325.546327 377.827333 333.467226 375.756345 341.191795 373.080783 
C 348.916365 370.405221 356.421252 367.133173 363.638598 363.294225 
L 289.568477 224.04 
z
" style="fill: #ffb3e6"/>
   </g>
   <g id="patch_8">
    <path d="M 363.638598 363.294225 
C 370.215873 359.795735 376.537029 355.835648 382.554579 351.443716 
C 388.572128 347.051784 394.270964 342.239032 399.608271 337.041618 
L 289.568477 224.04 
z
" style="fill: #c4e17f"/>
   </g>
   <g id="patch_9">
    <path d="M 399.608271 337.041618 
C 403.832981 332.927639 407.82366 328.579977 411.561507 324.019111 
C 415.299354 319.458246 418.778491 314.691351 421.982528 309.740882 
L 289.568477 224.04 
z
" style="fill: #ff9999"/>
   </g>
   <g id="patch_10">
    <path d="M 421.982528 309.740882 
C 424.624232 305.659258 427.075802 301.457672 429.329383 297.149584 
C 431.582964 292.841496 433.636147 288.431512 435.482354 283.93376 
L 289.568477 224.04 
z
" style="fill: #66b3ff"/>
   </g>
   <g id="patch_11">
    <path d="M 435.482354 283.93376 
C 436.542815 281.350253 437.534474 278.739038 438.456283 276.102876 
C 439.378093 273.466714 440.229727 270.806535 441.010285 268.125153 
L 289.568477 224.04 
z
" style="fill: #99ff99"/>
   </g>
   <g id="patch_12">
    <path d="M 441.010285 268.125153 
C 441.646283 265.940366 442.234928 263.742072 442.775807 261.531814 
C 443.316685 259.321557 443.809671 257.099854 444.254417 254.868265 
L 289.568477 224.04 
z
" style="fill: #ffcc99"/>
   </g>
   <g id="patch_13">
    <path d="M 444.254417 254.868265 
C 444.658729 252.839562 445.023093 250.803101 445.347296 248.760064 
C 445.671499 246.717028 445.955479 244.667811 446.199072 242.613604 
L 289.568477 224.04 
z
" style="fill: #c2c2f0"/>
   </g>
   <g id="patch_14">
    <path d="M 446.199072 242.613604 
C 446.393944 240.970257 446.562941 239.323945 446.706 237.675279 
C 446.84906 236.026614 446.966164 234.375799 447.057269 232.723448 
L 289.568477 224.04 
z
" style="fill: #ffb3e6"/>
   </g>
   <g id="patch_15">
    <path d="M 447.057269 232.723448 
C 447.108516 231.794014 447.151533 230.864144 447.186317 229.933948 
C 447.2211 229.003752 447.247649 228.073267 447.265959 227.142601 
L 289.568477 224.04 
z
" style="fill: #c4e17f"/>
   </g>
   <g id="patch_16">
    <path d="M 447.265959 227.142601 
C 447.272063 226.83238 447.277251 226.522143 447.281523 226.211892 
C 447.285796 225.901641 447.289153 225.591379 447.291594 225.281108 
L 289.568477 224.04 
z
" style="fill: #ff9999"/>
   </g>
   <g id="patch_17">
    <path d="M 447.291594 225.281108 
C 447.293222 225.074261 447.294442 224.867411 447.295256 224.660559 
C 447.29607 224.453708 447.296477 224.246854 447.296477 224.040001 
L 289.568477 224.04 
z
" style="fill: #66b3ff"/>
   </g>
   <g id="matplotlib.axis_1"/>
   <g id="matplotlib.axis_2"/>
   <g id="text_1">
    <!-- MARCELO BOUBILA -->
    <g transform="translate(389.076678 84.6704) scale(0.1 -0.1)">
     <defs>
      <path id="DejaVuSans-4d" d="M 628 4666 
L 1569 4666 
L 2759 1491 
L 3956 4666 
L 4897 4666 
L 4897 0 
L 4281 0 
L 4281 4097 
L 3078 897 
L 2444 897 
L 1241 4097 
L 1241 0 
L 628 0 
L 628 4666 
z
" transform="scale(0.015625)"/>
      <path id="DejaVuSans-41" d="M 2188 4044 
L 1331 1722 
L 3047 1722 
L 2188 4044 
z
M 1831 4666 
L 2547 4666 
L 4325 0 
L 3669 0 
L 3244 1197 
L 1141 1197 
L 716 0 
L 50 0 
L 1831 4666 
z
" transform="scale(0.015625)"/>
      <path id="DejaVuSans-52" d="M 2841 2188 
Q 3044 2119 3236 1894 
Q 3428 1669 3622 1275 
L 4263 0 
L 3584 0 
L 2988 1197 
Q 2756 1666 2539 1819 
Q 2322 1972 1947 1972 
L 1259 1972 
L 1259 0 
L 628 0 
L 628 4666 
L 2053 4666 
Q 2853 4666 3247 4331 
Q 3641 3997 3641 3322 
Q 3641 2881 3436 2590 
Q 3231 2300 2841 2188 
z
M 1259 4147 
L 1259 2491 
L 2053 2491 
Q 2509 2491 2742 2702 
Q 2975 2913 2975 3322 
Q 2975 3731 2742 3939 
Q 2509 4147 2053 4147 
L 1259 4147 
z
" transform="scale(0.015625)"/>
      <path id="DejaVuSans-43" d="M 4122 4306 
L 4122 3641 
Q 3803 3938 3442 4084 
Q 3081 4231 2675 4231 
Q 1875 4231 1450 3742 
Q 1025 3253 1025 2328 
Q 1025 1406 1450 917 
Q 1875 428 2675 428 
Q 3081 428 3442 575 
Q 3803 722 4122 1019 
L 4122 359 
Q 3791 134 3420 21 
Q 3050 -91 2638 -91 
Q 1578 -91 968 557 
Q 359 1206 359 2328 
Q 359 3453 968 4101 
Q 1578 4750 2638 4750 
Q 3056 4750 3426 4639 
Q 3797 4528 4122 4306 
z
" transform="scale(0.015625)"/>
      <path id="DejaVuSans-45" d="M 628 4666 
L 3578 4666 
L 3578 4134 
L 1259 4134 
L 1259 2753 
L 3481 2753 
L 3481 2222 
L 1259 2222 
L 1259 531 
L 3634 531 
L 3634 0 
L 628 0 
L 628 4666 
z
" transform="scale(0.015625)"/>
      <path id="DejaVuSans-4c" d="M 628 4666 
L 1259 4666 
L 1259 531 
L 3531 531 
L 3531 0 
L 628 0 
L 628 4666 
z
" transform="scale(0.015625)"/>
      <path id="DejaVuSans-4f" d="M 2522 4238 
Q 1834 4238 1429 3725 
Q 1025 3213 1025 2328 
Q 1025 1447 1429 934 
Q 1834 422 2522 422 
Q 3209 422 3611 934 
Q 4013 1447 4013 2328 
Q 4013 3213 3611 3725 
Q 3209 4238 2522 4238 
z
M 2522 4750 
Q 3503 4750 4090 4092 
Q 4678 3434 4678 2328 
Q 4678 1225 4090 567 
Q 3503 -91 2522 -91 
Q 1538 -91 948 565 
Q 359 1222 359 2328 
Q 359 3434 948 4092 
Q 1538 4750 2522 4750 
z
" transform="scale(0.015625)"/>
      <path id="DejaVuSans-20" transform="scale(0.015625)"/>
      <path id="DejaVuSans-42" d="M 1259 2228 
L 1259 519 
L 2272 519 
Q 2781 519 3026 730 
Q 3272 941 3272 1375 
Q 3272 1813 3026 2020 
Q 2781 2228 2272 2228 
L 1259 2228 
z
M 1259 4147 
L 1259 2741 
L 2194 2741 
Q 2656 2741 2882 2914 
Q 3109 3088 3109 3444 
Q 3109 3797 2882 3972 
Q 2656 4147 2194 4147 
L 1259 4147 
z
M 628 4666 
L 2241 4666 
Q 2963 4666 3353 4366 
Q 3744 4066 3744 3513 
Q 3744 3084 3544 2831 
Q 3344 2578 2956 2516 
Q 3422 2416 3680 2098 
Q 3938 1781 3938 1306 
Q 3938 681 3513 340 
Q 3088 0 2303 0 
L 628 0 
L 628 4666 
z
" transform="scale(0.015625)"/>
      <path id="DejaVuSans-55" d="M 556 4666 
L 1191 4666 
L 1191 1831 
Q 1191 1081 1462 751 
Q 1734 422 2344 422 
Q 2950 422 3222 751 
Q 3494 1081 3494 1831 
L 3494 4666 
L 4128 4666 
L 4128 1753 
Q 4128 841 3676 375 
Q 3225 -91 2344 -91 
Q 1459 -91 1007 375 
Q 556 841 556 1753 
L 556 4666 
z
" transform="scale(0.015625)"/>
      <path id="DejaVuSans-49" d="M 628 4666 
L 1259 4666 
L 1259 0 
L 628 0 
L 628 4666 
z
" transform="scale(0.015625)"/>
     </defs>
     <use xlink:href="#DejaVuSans-4d"/>
     <use xlink:href="#DejaVuSans-41" x="86.279297"/>
     <use xlink:href="#DejaVuSans-52" x="154.6875"/>
     <use xlink:href="#DejaVuSans-43" x="219.169922"/>
     <use xlink:href="#DejaVuSans-45" x="288.994141"/>
     <use xlink:href="#DejaVuSans-4c" x="352.177734"/>
     <use xlink:href="#DejaVuSans-4f" x="404.265625"/>
     <use xlink:href="#DejaVuSans-20" x="482.976562"/>
     <use xlink:href="#DejaVuSans-42" x="514.763672"/>
     <use xlink:href="#DejaVuSans-4f" x="581.617188"/>
     <use xlink:href="#DejaVuSans-55" x="660.328125"/>
     <use xlink:href="#DejaVuSans-42" x="733.521484"/>
     <use xlink:href="#DejaVuSans-49" x="802.125"/>
     <use xlink:href="#DejaVuSans-4c" x="831.617188"/>
     <use xlink:href="#DejaVuSans-41" x="889.580078"/>
    </g>
   </g>
   <g id="text_2">
    <!-- 30.6% -->
    <g transform="translate(327.962084 149.274479) scale(0.1 -0.1)">
     <defs>
      <path id="DejaVuSans-33" d="M 2597 2516 
Q 3050 2419 3304 2112 
Q 3559 1806 3559 1356 
Q 3559 666 3084 287 
Q 2609 -91 1734 -91 
Q 1441 -91 1130 -33 
Q 819 25 488 141 
L 488 750 
Q 750 597 1062 519 
Q 1375 441 1716 441 
Q 2309 441 2620 675 
Q 2931 909 2931 1356 
Q 2931 1769 2642 2001 
Q 2353 2234 1838 2234 
L 1294 2234 
L 1294 2753 
L 1863 2753 
Q 2328 2753 2575 2939 
Q 2822 3125 2822 3475 
Q 2822 3834 2567 4026 
Q 2313 4219 1838 4219 
Q 1578 4219 1281 4162 
Q 984 4106 628 3988 
L 628 4550 
Q 988 4650 1302 4700 
Q 1616 4750 1894 4750 
Q 2613 4750 3031 4423 
Q 3450 4097 3450 3541 
Q 3450 3153 3228 2886 
Q 3006 2619 2597 2516 
z
" transform="scale(0.015625)"/>
      <path id="DejaVuSans-30" d="M 2034 4250 
Q 1547 4250 1301 3770 
Q 1056 3291 1056 2328 
Q 1056 1369 1301 889 
Q 1547 409 2034 409 
Q 2525 409 2770 889 
Q 3016 1369 3016 2328 
Q 3016 3291 2770 3770 
Q 2525 4250 2034 4250 
z
M 2034 4750 
Q 2819 4750 3233 4129 
Q 3647 3509 3647 2328 
Q 3647 1150 3233 529 
Q 2819 -91 2034 -91 
Q 1250 -91 836 529 
Q 422 1150 422 2328 
Q 422 3509 836 4129 
Q 1250 4750 2034 4750 
z
" transform="scale(0.015625)"/>
      <path id="DejaVuSans-2e" d="M 684 794 
L 1344 794 
L 1344 0 
L 684 0 
L 684 794 
z
" transform="scale(0.015625)"/>
      <path id="DejaVuSans-36" d="M 2113 2584 
Q 1688 2584 1439 2293 
Q 1191 2003 1191 1497 
Q 1191 994 1439 701 
Q 1688 409 2113 409 
Q 2538 409 2786 701 
Q 3034 994 3034 1497 
Q 3034 2003 2786 2293 
Q 2538 2584 2113 2584 
z
M 3366 4563 
L 3366 3988 
Q 3128 4100 2886 4159 
Q 2644 4219 2406 4219 
Q 1781 4219 1451 3797 
Q 1122 3375 1075 2522 
Q 1259 2794 1537 2939 
Q 1816 3084 2150 3084 
Q 2853 3084 3261 2657 
Q 3669 2231 3669 1497 
Q 3669 778 3244 343 
Q 2819 -91 2113 -91 
Q 1303 -91 875 529 
Q 447 1150 447 2328 
Q 447 3434 972 4092 
Q 1497 4750 2381 4750 
Q 2619 4750 2861 4703 
Q 3103 4656 3366 4563 
z
" transform="scale(0.015625)"/>
      <path id="DejaVuSans-25" d="M 4653 2053 
Q 4381 2053 4226 1822 
Q 4072 1591 4072 1178 
Q 4072 772 4226 539 
Q 4381 306 4653 306 
Q 4919 306 5073 539 
Q 5228 772 5228 1178 
Q 5228 1588 5073 1820 
Q 4919 2053 4653 2053 
z
M 4653 2450 
Q 5147 2450 5437 2106 
Q 5728 1763 5728 1178 
Q 5728 594 5436 251 
Q 5144 -91 4653 -91 
Q 4153 -91 3862 251 
Q 3572 594 3572 1178 
Q 3572 1766 3864 2108 
Q 4156 2450 4653 2450 
z
M 1428 4353 
Q 1159 4353 1004 4120 
Q 850 3888 850 3481 
Q 850 3069 1003 2837 
Q 1156 2606 1428 2606 
Q 1700 2606 1854 2837 
Q 2009 3069 2009 3481 
Q 2009 3884 1853 4118 
Q 1697 4353 1428 4353 
z
M 4250 4750 
L 4750 4750 
L 1831 -91 
L 1331 -91 
L 4250 4750 
z
M 1428 4750 
Q 1922 4750 2215 4408 
Q 2509 4066 2509 3481 
Q 2509 2891 2217 2550 
Q 1925 2209 1428 2209 
Q 931 2209 642 2551 
Q 353 2894 353 3481 
Q 353 4063 643 4406 
Q 934 4750 1428 4750 
z
" transform="scale(0.015625)"/>
     </defs>
     <use xlink:href="#DejaVuSans-33"/>
     <use xlink:href="#DejaVuSans-30" x="63.623047"/>
     <use xlink:href="#DejaVuSans-2e" x="127.246094"/>
     <use xlink:href="#DejaVuSans-36" x="159.033203"/>
     <use xlink:href="#DejaVuSans-25" x="222.65625"/>
    </g>
   </g>
   <g id="text_3">
    <!-- CARLOS PEREZ -->
    <g transform="translate(79.747433 116.558588) scale(0.1 -0.1)">
     <defs>
      <path id="DejaVuSans-53" d="M 3425 4513 
L 3425 3897 
Q 3066 4069 2747 4153 
Q 2428 4238 2131 4238 
Q 1616 4238 1336 4038 
Q 1056 3838 1056 3469 
Q 1056 3159 1242 3001 
Q 1428 2844 1947 2747 
L 2328 2669 
Q 3034 2534 3370 2195 
Q 3706 1856 3706 1288 
Q 3706 609 3251 259 
Q 2797 -91 1919 -91 
Q 1588 -91 1214 -16 
Q 841 59 441 206 
L 441 856 
Q 825 641 1194 531 
Q 1563 422 1919 422 
Q 2459 422 2753 634 
Q 3047 847 3047 1241 
Q 3047 1584 2836 1778 
Q 2625 1972 2144 2069 
L 1759 2144 
Q 1053 2284 737 2584 
Q 422 2884 422 3419 
Q 422 4038 858 4394 
Q 1294 4750 2059 4750 
Q 2388 4750 2728 4690 
Q 3069 4631 3425 4513 
z
" transform="scale(0.015625)"/>
      <path id="DejaVuSans-50" d="M 1259 4147 
L 1259 2394 
L 2053 2394 
Q 2494 2394 2734 2622 
Q 2975 2850 2975 3272 
Q 2975 3691 2734 3919 
Q 2494 4147 2053 4147 
L 1259 4147 
z
M 628 4666 
L 2053 4666 
Q 2838 4666 3239 4311 
Q 3641 3956 3641 3272 
Q 3641 2581 3239 2228 
Q 2838 1875 2053 1875 
L 1259 1875 
L 1259 0 
L 628 0 
L 628 4666 
z
" transform="scale(0.015625)"/>
      <path id="DejaVuSans-5a" d="M 359 4666 
L 4025 4666 
L 4025 4184 
L 1075 531 
L 4097 531 
L 4097 0 
L 288 0 
L 288 481 
L 3238 4134 
L 359 4134 
L 359 4666 
z
" transform="scale(0.015625)"/>
     </defs>
     <use xlink:href="#DejaVuSans-43"/>
     <use xlink:href="#DejaVuSans-41" x="69.824219"/>
     <use xlink:href="#DejaVuSans-52" x="138.232422"/>
     <use xlink:href="#DejaVuSans-4c" x="207.714844"/>
     <use xlink:href="#DejaVuSans-4f" x="259.802734"/>
     <use xlink:href="#DejaVuSans-53" x="338.513672"/>
     <use xlink:href="#DejaVuSans-20" x="401.990234"/>
     <use xlink:href="#DejaVuSans-50" x="433.777344"/>
     <use xlink:href="#DejaVuSans-45" x="494.080078"/>
     <use xlink:href="#DejaVuSans-52" x="557.263672"/>
     <use xlink:href="#DejaVuSans-45" x="626.746094"/>
     <use xlink:href="#DejaVuSans-5a" x="689.929688"/>
    </g>
   </g>
   <g id="text_4">
    <!-- 17.0% -->
    <g transform="translate(200.607212 166.668037) scale(0.1 -0.1)">
     <defs>
      <path id="DejaVuSans-31" d="M 794 531 
L 1825 531 
L 1825 4091 
L 703 3866 
L 703 4441 
L 1819 4666 
L 2450 4666 
L 2450 531 
L 3481 531 
L 3481 0 
L 794 0 
L 794 531 
z
" transform="scale(0.015625)"/>
      <path id="DejaVuSans-37" d="M 525 4666 
L 3525 4666 
L 3525 4397 
L 1831 0 
L 1172 0 
L 2766 4134 
L 525 4134 
L 525 4666 
z
" transform="scale(0.015625)"/>
     </defs>
     <use xlink:href="#DejaVuSans-31"/>
     <use xlink:href="#DejaVuSans-37" x="63.623047"/>
     <use xlink:href="#DejaVuSans-2e" x="127.246094"/>
     <use xlink:href="#DejaVuSans-30" x="159.033203"/>
     <use xlink:href="#DejaVuSans-25" x="222.65625"/>
    </g>
   </g>
   <g id="text_5">
    <!-- LEONARDO MARTINELLI -->
    <g transform="translate(2.138831 266.048394) scale(0.1 -0.1)">
     <defs>
      <path id="DejaVuSans-4e" d="M 628 4666 
L 1478 4666 
L 3547 763 
L 3547 4666 
L 4159 4666 
L 4159 0 
L 3309 0 
L 1241 3903 
L 1241 0 
L 628 0 
L 628 4666 
z
" transform="scale(0.015625)"/>
      <path id="DejaVuSans-44" d="M 1259 4147 
L 1259 519 
L 2022 519 
Q 2988 519 3436 956 
Q 3884 1394 3884 2338 
Q 3884 3275 3436 3711 
Q 2988 4147 2022 4147 
L 1259 4147 
z
M 628 4666 
L 1925 4666 
Q 3281 4666 3915 4102 
Q 4550 3538 4550 2338 
Q 4550 1131 3912 565 
Q 3275 0 1925 0 
L 628 0 
L 628 4666 
z
" transform="scale(0.015625)"/>
      <path id="DejaVuSans-54" d="M -19 4666 
L 3928 4666 
L 3928 4134 
L 2272 4134 
L 2272 0 
L 1638 0 
L 1638 4134 
L -19 4134 
L -19 4666 
z
" transform="scale(0.015625)"/>
     </defs>
     <use xlink:href="#DejaVuSans-4c"/>
     <use xlink:href="#DejaVuSans-45" x="55.712891"/>
     <use xlink:href="#DejaVuSans-4f" x="118.896484"/>
     <use xlink:href="#DejaVuSans-4e" x="197.607422"/>
     <use xlink:href="#DejaVuSans-41" x="272.412109"/>
     <use xlink:href="#DejaVuSans-52" x="340.820312"/>
     <use xlink:href="#DejaVuSans-44" x="410.302734"/>
     <use xlink:href="#DejaVuSans-4f" x="487.304688"/>
     <use xlink:href="#DejaVuSans-20" x="566.015625"/>
     <use xlink:href="#DejaVuSans-4d" x="597.802734"/>
     <use xlink:href="#DejaVuSans-41" x="684.082031"/>
     <use xlink:href="#DejaVuSans-52" x="752.490234"/>
     <use xlink:href="#DejaVuSans-54" x="814.722656"/>
     <use xlink:href="#DejaVuSans-49" x="875.806641"/>
     <use xlink:href="#DejaVuSans-4e" x="905.298828"/>
     <use xlink:href="#DejaVuSans-45" x="980.103516"/>
     <use xlink:href="#DejaVuSans-4c" x="1043.287109"/>
     <use xlink:href="#DejaVuSans-4c" x="1099"/>
     <use xlink:href="#DejaVuSans-49" x="1154.712891"/>
    </g>
   </g>
   <g id="text_6">
    <!-- 12.2% -->
    <g transform="translate(181.501383 248.207931) scale(0.1 -0.1)">
     <defs>
      <path id="DejaVuSans-32" d="M 1228 531 
L 3431 531 
L 3431 0 
L 469 0 
L 469 531 
Q 828 903 1448 1529 
Q 2069 2156 2228 2338 
Q 2531 2678 2651 2914 
Q 2772 3150 2772 3378 
Q 2772 3750 2511 3984 
Q 2250 4219 1831 4219 
Q 1534 4219 1204 4116 
Q 875 4013 500 3803 
L 500 4441 
Q 881 4594 1212 4672 
Q 1544 4750 1819 4750 
Q 2544 4750 2975 4387 
Q 3406 4025 3406 3419 
Q 3406 3131 3298 2873 
Q 3191 2616 2906 2266 
Q 2828 2175 2409 1742 
Q 1991 1309 1228 531 
z
" transform="scale(0.015625)"/>
     </defs>
     <use xlink:href="#DejaVuSans-31"/>
     <use xlink:href="#DejaVuSans-32" x="63.623047"/>
     <use xlink:href="#DejaVuSans-2e" x="127.246094"/>
     <use xlink:href="#DejaVuSans-32" x="159.033203"/>
     <use xlink:href="#DejaVuSans-25" x="222.65625"/>
    </g>
   </g>
   <g id="text_7">
    <!-- MARCOS SAWKIW -->
    <g transform="translate(100.259332 367.942737) scale(0.1 -0.1)">
     <defs>
      <path id="DejaVuSans-57" d="M 213 4666 
L 850 4666 
L 1831 722 
L 2809 4666 
L 3519 4666 
L 4500 722 
L 5478 4666 
L 6119 4666 
L 4947 0 
L 4153 0 
L 3169 4050 
L 2175 0 
L 1381 0 
L 213 4666 
z
" transform="scale(0.015625)"/>
      <path id="DejaVuSans-4b" d="M 628 4666 
L 1259 4666 
L 1259 2694 
L 3353 4666 
L 4166 4666 
L 1850 2491 
L 4331 0 
L 3500 0 
L 1259 2247 
L 1259 0 
L 628 0 
L 628 4666 
z
" transform="scale(0.015625)"/>
     </defs>
     <use xlink:href="#DejaVuSans-4d"/>
     <use xlink:href="#DejaVuSans-41" x="86.279297"/>
     <use xlink:href="#DejaVuSans-52" x="154.6875"/>
     <use xlink:href="#DejaVuSans-43" x="219.169922"/>
     <use xlink:href="#DejaVuSans-4f" x="288.994141"/>
     <use xlink:href="#DejaVuSans-53" x="367.705078"/>
     <use xlink:href="#DejaVuSans-20" x="431.181641"/>
     <use xlink:href="#DejaVuSans-53" x="462.96875"/>
     <use xlink:href="#DejaVuSans-41" x="528.320312"/>
     <use xlink:href="#DejaVuSans-57" x="591.228516"/>
     <use xlink:href="#DejaVuSans-4b" x="690.105469"/>
     <use xlink:href="#DejaVuSans-49" x="755.681641"/>
     <use xlink:href="#DejaVuSans-57" x="785.173828"/>
    </g>
   </g>
   <g id="text_8">
    <!-- 10.8% -->
    <g transform="translate(218.647793 303.786663) scale(0.1 -0.1)">
     <defs>
      <path id="DejaVuSans-38" d="M 2034 2216 
Q 1584 2216 1326 1975 
Q 1069 1734 1069 1313 
Q 1069 891 1326 650 
Q 1584 409 2034 409 
Q 2484 409 2743 651 
Q 3003 894 3003 1313 
Q 3003 1734 2745 1975 
Q 2488 2216 2034 2216 
z
M 1403 2484 
Q 997 2584 770 2862 
Q 544 3141 544 3541 
Q 544 4100 942 4425 
Q 1341 4750 2034 4750 
Q 2731 4750 3128 4425 
Q 3525 4100 3525 3541 
Q 3525 3141 3298 2862 
Q 3072 2584 2669 2484 
Q 3125 2378 3379 2068 
Q 3634 1759 3634 1313 
Q 3634 634 3220 271 
Q 2806 -91 2034 -91 
Q 1263 -91 848 271 
Q 434 634 434 1313 
Q 434 1759 690 2068 
Q 947 2378 1403 2484 
z
M 1172 3481 
Q 1172 3119 1398 2916 
Q 1625 2713 2034 2713 
Q 2441 2713 2670 2916 
Q 2900 3119 2900 3481 
Q 2900 3844 2670 4047 
Q 2441 4250 2034 4250 
Q 1625 4250 1398 4047 
Q 1172 3844 1172 3481 
z
" transform="scale(0.015625)"/>
     </defs>
     <use xlink:href="#DejaVuSans-31"/>
     <use xlink:href="#DejaVuSans-30" x="63.623047"/>
     <use xlink:href="#DejaVuSans-2e" x="127.246094"/>
     <use xlink:href="#DejaVuSans-38" x="159.033203"/>
     <use xlink:href="#DejaVuSans-25" x="222.65625"/>
    </g>
   </g>
   <g id="text_9">
    <!-- LUIS COMOLLI -->
    <g transform="translate(210.212291 400.064478) scale(0.1 -0.1)">
     <use xlink:href="#DejaVuSans-4c"/>
     <use xlink:href="#DejaVuSans-55" x="50.712891"/>
     <use xlink:href="#DejaVuSans-49" x="123.90625"/>
     <use xlink:href="#DejaVuSans-53" x="153.398438"/>
     <use xlink:href="#DejaVuSans-20" x="216.875"/>
     <use xlink:href="#DejaVuSans-43" x="248.662109"/>
     <use xlink:href="#DejaVuSans-4f" x="318.486328"/>
     <use xlink:href="#DejaVuSans-4d" x="397.197266"/>
     <use xlink:href="#DejaVuSans-4f" x="483.476562"/>
     <use xlink:href="#DejaVuSans-4c" x="562.1875"/>
     <use xlink:href="#DejaVuSans-4c" x="617.900391"/>
     <use xlink:href="#DejaVuSans-49" x="673.613281"/>
    </g>
   </g>
   <g id="text_10">
    <!-- 7.3% -->
    <g transform="translate(271.934918 321.307613) scale(0.1 -0.1)">
     <use xlink:href="#DejaVuSans-37"/>
     <use xlink:href="#DejaVuSans-2e" x="63.623047"/>
     <use xlink:href="#DejaVuSans-33" x="95.410156"/>
     <use xlink:href="#DejaVuSans-25" x="159.033203"/>
    </g>
   </g>
   <g id="text_11">
    <!-- PABLO BECERRA -->
    <g transform="translate(346.354127 390.744236) scale(0.1 -0.1)">
     <use xlink:href="#DejaVuSans-50"/>
     <use xlink:href="#DejaVuSans-41" x="53.927734"/>
     <use xlink:href="#DejaVuSans-42" x="122.335938"/>
     <use xlink:href="#DejaVuSans-4c" x="190.939453"/>
     <use xlink:href="#DejaVuSans-4f" x="243.027344"/>
     <use xlink:href="#DejaVuSans-20" x="321.738281"/>
     <use xlink:href="#DejaVuSans-42" x="353.525391"/>
     <use xlink:href="#DejaVuSans-45" x="422.128906"/>
     <use xlink:href="#DejaVuSans-43" x="485.3125"/>
     <use xlink:href="#DejaVuSans-45" x="555.136719"/>
     <use xlink:href="#DejaVuSans-52" x="618.320312"/>
     <use xlink:href="#DejaVuSans-52" x="687.802734"/>
     <use xlink:href="#DejaVuSans-41" x="753.285156"/>
    </g>
   </g>
   <g id="text_12">
    <!-- 4.9% -->
    <g transform="translate(307.840124 316.223845) scale(0.1 -0.1)">
     <defs>
      <path id="DejaVuSans-34" d="M 2419 4116 
L 825 1625 
L 2419 1625 
L 2419 4116 
z
M 2253 4666 
L 3047 4666 
L 3047 1625 
L 3713 1625 
L 3713 1100 
L 3047 1100 
L 3047 0 
L 2419 0 
L 2419 1100 
L 313 1100 
L 313 1709 
L 2253 4666 
z
" transform="scale(0.015625)"/>
      <path id="DejaVuSans-39" d="M 703 97 
L 703 672 
Q 941 559 1184 500 
Q 1428 441 1663 441 
Q 2288 441 2617 861 
Q 2947 1281 2994 2138 
Q 2813 1869 2534 1725 
Q 2256 1581 1919 1581 
Q 1219 1581 811 2004 
Q 403 2428 403 3163 
Q 403 3881 828 4315 
Q 1253 4750 1959 4750 
Q 2769 4750 3195 4129 
Q 3622 3509 3622 2328 
Q 3622 1225 3098 567 
Q 2575 -91 1691 -91 
Q 1453 -91 1209 -44 
Q 966 3 703 97 
z
M 1959 2075 
Q 2384 2075 2632 2365 
Q 2881 2656 2881 3163 
Q 2881 3666 2632 3958 
Q 2384 4250 1959 4250 
Q 1534 4250 1286 3958 
Q 1038 3666 1038 3163 
Q 1038 2656 1286 2365 
Q 1534 2075 1959 2075 
z
" transform="scale(0.015625)"/>
     </defs>
     <use xlink:href="#DejaVuSans-34"/>
     <use xlink:href="#DejaVuSans-2e" x="63.623047"/>
     <use xlink:href="#DejaVuSans-39" x="95.410156"/>
     <use xlink:href="#DejaVuSans-25" x="159.033203"/>
    </g>
   </g>
   <g id="text_13">
    <!-- VENDEDOR 1 -->
    <g transform="translate(391.853189 366.943463) scale(0.1 -0.1)">
     <defs>
      <path id="DejaVuSans-56" d="M 1831 0 
L 50 4666 
L 709 4666 
L 2188 738 
L 3669 4666 
L 4325 4666 
L 2547 0 
L 1831 0 
z
" transform="scale(0.015625)"/>
     </defs>
     <use xlink:href="#DejaVuSans-56"/>
     <use xlink:href="#DejaVuSans-45" x="68.408203"/>
     <use xlink:href="#DejaVuSans-4e" x="131.591797"/>
     <use xlink:href="#DejaVuSans-44" x="206.396484"/>
     <use xlink:href="#DejaVuSans-45" x="283.398438"/>
     <use xlink:href="#DejaVuSans-44" x="346.582031"/>
     <use xlink:href="#DejaVuSans-4f" x="423.583984"/>
     <use xlink:href="#DejaVuSans-52" x="502.294922"/>
     <use xlink:href="#DejaVuSans-20" x="571.777344"/>
     <use xlink:href="#DejaVuSans-31" x="603.564453"/>
    </g>
   </g>
   <g id="text_14">
    <!-- 4.5% -->
    <g transform="translate(332.657794 303.241605) scale(0.1 -0.1)">
     <defs>
      <path id="DejaVuSans-35" d="M 691 4666 
L 3169 4666 
L 3169 4134 
L 1269 4134 
L 1269 2991 
Q 1406 3038 1543 3061 
Q 1681 3084 1819 3084 
Q 2600 3084 3056 2656 
Q 3513 2228 3513 1497 
Q 3513 744 3044 326 
Q 2575 -91 1722 -91 
Q 1428 -91 1123 -41 
Q 819 9 494 109 
L 494 744 
Q 775 591 1075 516 
Q 1375 441 1709 441 
Q 2250 441 2565 725 
Q 2881 1009 2881 1497 
Q 2881 1984 2565 2268 
Q 2250 2553 1709 2553 
Q 1456 2553 1204 2497 
Q 953 2441 691 2322 
L 691 4666 
z
" transform="scale(0.015625)"/>
     </defs>
     <use xlink:href="#DejaVuSans-34"/>
     <use xlink:href="#DejaVuSans-2e" x="63.623047"/>
     <use xlink:href="#DejaVuSans-35" x="95.410156"/>
     <use xlink:href="#DejaVuSans-25" x="159.033203"/>
    </g>
   </g>
   <g id="text_15">
    <!-- GERARDO IZNARDO -->
    <g transform="translate(423.76081 336.776397) scale(0.1 -0.1)">
     <defs>
      <path id="DejaVuSans-47" d="M 3809 666 
L 3809 1919 
L 2778 1919 
L 2778 2438 
L 4434 2438 
L 4434 434 
Q 4069 175 3628 42 
Q 3188 -91 2688 -91 
Q 1594 -91 976 548 
Q 359 1188 359 2328 
Q 359 3472 976 4111 
Q 1594 4750 2688 4750 
Q 3144 4750 3555 4637 
Q 3966 4525 4313 4306 
L 4313 3634 
Q 3963 3931 3569 4081 
Q 3175 4231 2741 4231 
Q 1884 4231 1454 3753 
Q 1025 3275 1025 2328 
Q 1025 1384 1454 906 
Q 1884 428 2741 428 
Q 3075 428 3337 486 
Q 3600 544 3809 666 
z
" transform="scale(0.015625)"/>
     </defs>
     <use xlink:href="#DejaVuSans-47"/>
     <use xlink:href="#DejaVuSans-45" x="77.490234"/>
     <use xlink:href="#DejaVuSans-52" x="140.673828"/>
     <use xlink:href="#DejaVuSans-41" x="206.15625"/>
     <use xlink:href="#DejaVuSans-52" x="274.564453"/>
     <use xlink:href="#DejaVuSans-44" x="344.046875"/>
     <use xlink:href="#DejaVuSans-4f" x="421.048828"/>
     <use xlink:href="#DejaVuSans-20" x="499.759766"/>
     <use xlink:href="#DejaVuSans-49" x="531.546875"/>
     <use xlink:href="#DejaVuSans-5a" x="561.039062"/>
     <use xlink:href="#DejaVuSans-4e" x="629.544922"/>
     <use xlink:href="#DejaVuSans-41" x="704.349609"/>
     <use xlink:href="#DejaVuSans-52" x="772.757812"/>
     <use xlink:href="#DejaVuSans-44" x="842.240234"/>
     <use xlink:href="#DejaVuSans-4f" x="919.242188"/>
    </g>
   </g>
   <g id="text_16">
    <!-- 3.6% -->
    <g transform="translate(350.061951 286.786842) scale(0.1 -0.1)">
     <use xlink:href="#DejaVuSans-33"/>
     <use xlink:href="#DejaVuSans-2e" x="63.623047"/>
     <use xlink:href="#DejaVuSans-36" x="95.410156"/>
     <use xlink:href="#DejaVuSans-25" x="159.033203"/>
    </g>
   </g>
   <g id="text_17">
    <!-- FERMIN SERIAL -->
    <g transform="translate(443.305473 307.219917) scale(0.1 -0.1)">
     <defs>
      <path id="DejaVuSans-46" d="M 628 4666 
L 3309 4666 
L 3309 4134 
L 1259 4134 
L 1259 2759 
L 3109 2759 
L 3109 2228 
L 1259 2228 
L 1259 0 
L 628 0 
L 628 4666 
z
" transform="scale(0.015625)"/>
     </defs>
     <use xlink:href="#DejaVuSans-46"/>
     <use xlink:href="#DejaVuSans-45" x="57.519531"/>
     <use xlink:href="#DejaVuSans-52" x="120.703125"/>
     <use xlink:href="#DejaVuSans-4d" x="190.185547"/>
     <use xlink:href="#DejaVuSans-49" x="276.464844"/>
     <use xlink:href="#DejaVuSans-4e" x="305.957031"/>
     <use xlink:href="#DejaVuSans-20" x="380.761719"/>
     <use xlink:href="#DejaVuSans-53" x="412.548828"/>
     <use xlink:href="#DejaVuSans-45" x="476.025391"/>
     <use xlink:href="#DejaVuSans-52" x="539.208984"/>
     <use xlink:href="#DejaVuSans-49" x="608.691406"/>
     <use xlink:href="#DejaVuSans-41" x="638.183594"/>
     <use xlink:href="#DejaVuSans-4c" x="706.591797"/>
    </g>
   </g>
   <g id="text_18">
    <!-- 2.9% -->
    <g transform="translate(360.722677 270.665125) scale(0.1 -0.1)">
     <use xlink:href="#DejaVuSans-32"/>
     <use xlink:href="#DejaVuSans-2e" x="63.623047"/>
     <use xlink:href="#DejaVuSans-39" x="95.410156"/>
     <use xlink:href="#DejaVuSans-25" x="159.033203"/>
    </g>
   </g>
   <g id="text_19">
    <!-- MARTIN SENATORE -->
    <g transform="translate(453.345064 284.068539) scale(0.1 -0.1)">
     <use xlink:href="#DejaVuSans-4d"/>
     <use xlink:href="#DejaVuSans-41" x="86.279297"/>
     <use xlink:href="#DejaVuSans-52" x="154.6875"/>
     <use xlink:href="#DejaVuSans-54" x="216.919922"/>
     <use xlink:href="#DejaVuSans-49" x="278.003906"/>
     <use xlink:href="#DejaVuSans-4e" x="307.496094"/>
     <use xlink:href="#DejaVuSans-20" x="382.300781"/>
     <use xlink:href="#DejaVuSans-53" x="414.087891"/>
     <use xlink:href="#DejaVuSans-45" x="477.564453"/>
     <use xlink:href="#DejaVuSans-4e" x="540.748047"/>
     <use xlink:href="#DejaVuSans-41" x="615.552734"/>
     <use xlink:href="#DejaVuSans-54" x="676.210938"/>
     <use xlink:href="#DejaVuSans-4f" x="737.294922"/>
     <use xlink:href="#DejaVuSans-52" x="816.005859"/>
     <use xlink:href="#DejaVuSans-45" x="885.488281"/>
    </g>
   </g>
   <g id="text_20">
    <!-- 1.7% -->
    <g transform="translate(366.198817 258.037101) scale(0.1 -0.1)">
     <use xlink:href="#DejaVuSans-31"/>
     <use xlink:href="#DejaVuSans-2e" x="63.623047"/>
     <use xlink:href="#DejaVuSans-37" x="95.410156"/>
     <use xlink:href="#DejaVuSans-25" x="159.033203"/>
    </g>
   </g>
   <g id="text_21">
    <!-- JOSE RODRIGUEZ -->
    <g transform="translate(458.09654 268.040371) scale(0.1 -0.1)">
     <defs>
      <path id="DejaVuSans-4a" d="M 628 4666 
L 1259 4666 
L 1259 325 
Q 1259 -519 939 -900 
Q 619 -1281 -91 -1281 
L -331 -1281 
L -331 -750 
L -134 -750 
Q 284 -750 456 -515 
Q 628 -281 628 325 
L 628 4666 
z
" transform="scale(0.015625)"/>
     </defs>
     <use xlink:href="#DejaVuSans-4a"/>
     <use xlink:href="#DejaVuSans-4f" x="29.492188"/>
     <use xlink:href="#DejaVuSans-53" x="108.203125"/>
     <use xlink:href="#DejaVuSans-45" x="171.679688"/>
     <use xlink:href="#DejaVuSans-20" x="234.863281"/>
     <use xlink:href="#DejaVuSans-52" x="266.650391"/>
     <use xlink:href="#DejaVuSans-4f" x="336.132812"/>
     <use xlink:href="#DejaVuSans-44" x="414.84375"/>
     <use xlink:href="#DejaVuSans-52" x="491.845703"/>
     <use xlink:href="#DejaVuSans-49" x="561.328125"/>
     <use xlink:href="#DejaVuSans-47" x="590.820312"/>
     <use xlink:href="#DejaVuSans-55" x="668.310547"/>
     <use xlink:href="#DejaVuSans-45" x="741.503906"/>
     <use xlink:href="#DejaVuSans-5a" x="804.6875"/>
    </g>
   </g>
   <g id="text_22">
    <!-- 1.4% -->
    <g transform="translate(368.790531 249.294464) scale(0.1 -0.1)">
     <use xlink:href="#DejaVuSans-31"/>
     <use xlink:href="#DejaVuSans-2e" x="63.623047"/>
     <use xlink:href="#DejaVuSans-34" x="95.410156"/>
     <use xlink:href="#DejaVuSans-25" x="159.033203"/>
    </g>
   </g>
   <g id="text_23">
    <!-- MARTIN BELLO -->
    <g transform="translate(460.925178 253.991446) scale(0.1 -0.1)">
     <use xlink:href="#DejaVuSans-4d"/>
     <use xlink:href="#DejaVuSans-41" x="86.279297"/>
     <use xlink:href="#DejaVuSans-52" x="154.6875"/>
     <use xlink:href="#DejaVuSans-54" x="216.919922"/>
     <use xlink:href="#DejaVuSans-49" x="278.003906"/>
     <use xlink:href="#DejaVuSans-4e" x="307.496094"/>
     <use xlink:href="#DejaVuSans-20" x="382.300781"/>
     <use xlink:href="#DejaVuSans-42" x="414.087891"/>
     <use xlink:href="#DejaVuSans-45" x="482.691406"/>
     <use xlink:href="#DejaVuSans-4c" x="545.875"/>
     <use xlink:href="#DejaVuSans-4c" x="601.587891"/>
     <use xlink:href="#DejaVuSans-4f" x="653.675781"/>
    </g>
   </g>
   <g id="text_24">
    <!-- 1.3% -->
    <g transform="translate(370.333425 241.631414) scale(0.1 -0.1)">
     <use xlink:href="#DejaVuSans-31"/>
     <use xlink:href="#DejaVuSans-2e" x="63.623047"/>
     <use xlink:href="#DejaVuSans-33" x="95.410156"/>
     <use xlink:href="#DejaVuSans-25" x="159.033203"/>
    </g>
   </g>
   <g id="text_25">
    <!-- SERGIO GARCIA -->
    <g transform="translate(462.419752 241.798182) scale(0.1 -0.1)">
     <use xlink:href="#DejaVuSans-53"/>
     <use xlink:href="#DejaVuSans-45" x="63.476562"/>
     <use xlink:href="#DejaVuSans-52" x="126.660156"/>
     <use xlink:href="#DejaVuSans-47" x="196.142578"/>
     <use xlink:href="#DejaVuSans-49" x="273.632812"/>
     <use xlink:href="#DejaVuSans-4f" x="303.125"/>
     <use xlink:href="#DejaVuSans-20" x="381.835938"/>
     <use xlink:href="#DejaVuSans-47" x="413.623047"/>
     <use xlink:href="#DejaVuSans-41" x="491.113281"/>
     <use xlink:href="#DejaVuSans-52" x="559.521484"/>
     <use xlink:href="#DejaVuSans-43" x="624.003906"/>
     <use xlink:href="#DejaVuSans-49" x="693.828125"/>
     <use xlink:href="#DejaVuSans-41" x="723.320312"/>
    </g>
   </g>
   <g id="text_26">
    <!-- 1.0% -->
    <g transform="translate(371.148647 234.980543) scale(0.1 -0.1)">
     <use xlink:href="#DejaVuSans-31"/>
     <use xlink:href="#DejaVuSans-2e" x="63.623047"/>
     <use xlink:href="#DejaVuSans-30" x="95.410156"/>
     <use xlink:href="#DejaVuSans-25" x="159.033203"/>
    </g>
   </g>
   <g id="text_27">
    <!-- MANUEL RODRIGUEZ -->
    <g transform="translate(462.948101 233.282718) scale(0.1 -0.1)">
     <use xlink:href="#DejaVuSans-4d"/>
     <use xlink:href="#DejaVuSans-41" x="86.279297"/>
     <use xlink:href="#DejaVuSans-4e" x="154.6875"/>
     <use xlink:href="#DejaVuSans-55" x="229.492188"/>
     <use xlink:href="#DejaVuSans-45" x="302.685547"/>
     <use xlink:href="#DejaVuSans-4c" x="365.869141"/>
     <use xlink:href="#DejaVuSans-20" x="421.582031"/>
     <use xlink:href="#DejaVuSans-52" x="453.369141"/>
     <use xlink:href="#DejaVuSans-4f" x="522.851562"/>
     <use xlink:href="#DejaVuSans-44" x="601.5625"/>
     <use xlink:href="#DejaVuSans-52" x="678.564453"/>
     <use xlink:href="#DejaVuSans-49" x="748.046875"/>
     <use xlink:href="#DejaVuSans-47" x="777.539062"/>
     <use xlink:href="#DejaVuSans-55" x="855.029297"/>
     <use xlink:href="#DejaVuSans-45" x="928.222656"/>
     <use xlink:href="#DejaVuSans-5a" x="991.40625"/>
    </g>
   </g>
   <g id="text_28">
    <!-- 0.6% -->
    <g transform="translate(371.436837 230.335744) scale(0.1 -0.1)">
     <use xlink:href="#DejaVuSans-30"/>
     <use xlink:href="#DejaVuSans-2e" x="63.623047"/>
     <use xlink:href="#DejaVuSans-36" x="95.410156"/>
     <use xlink:href="#DejaVuSans-25" x="159.033203"/>
    </g>
   </g>
   <g id="text_29">
    <!-- DANIEL BELLO -->
    <g transform="translate(463.052828 229.188456) scale(0.1 -0.1)">
     <use xlink:href="#DejaVuSans-44"/>
     <use xlink:href="#DejaVuSans-41" x="75.251953"/>
     <use xlink:href="#DejaVuSans-4e" x="143.660156"/>
     <use xlink:href="#DejaVuSans-49" x="218.464844"/>
     <use xlink:href="#DejaVuSans-45" x="247.957031"/>
     <use xlink:href="#DejaVuSans-4c" x="311.140625"/>
     <use xlink:href="#DejaVuSans-20" x="366.853516"/>
     <use xlink:href="#DejaVuSans-42" x="398.640625"/>
     <use xlink:href="#DejaVuSans-45" x="467.244141"/>
     <use xlink:href="#DejaVuSans-4c" x="530.427734"/>
     <use xlink:href="#DejaVuSans-4c" x="586.140625"/>
     <use xlink:href="#DejaVuSans-4f" x="638.228516"/>
    </g>
   </g>
   <g id="text_30">
    <!-- 0.2% -->
    <g transform="translate(371.493961 228.10251) scale(0.1 -0.1)">
     <use xlink:href="#DejaVuSans-30"/>
     <use xlink:href="#DejaVuSans-2e" x="63.623047"/>
     <use xlink:href="#DejaVuSans-32" x="95.410156"/>
     <use xlink:href="#DejaVuSans-25" x="159.033203"/>
    </g>
   </g>
   <g id="text_31">
    <!-- CRISTIAN FERNANDEZ -->
    <g transform="translate(463.067934 227.48199) scale(0.1 -0.1)">
     <use xlink:href="#DejaVuSans-43"/>
     <use xlink:href="#DejaVuSans-52" x="69.824219"/>
     <use xlink:href="#DejaVuSans-49" x="139.306641"/>
     <use xlink:href="#DejaVuSans-53" x="168.798828"/>
     <use xlink:href="#DejaVuSans-54" x="232.275391"/>
     <use xlink:href="#DejaVuSans-49" x="293.359375"/>
     <use xlink:href="#DejaVuSans-41" x="322.851562"/>
     <use xlink:href="#DejaVuSans-4e" x="391.259766"/>
     <use xlink:href="#DejaVuSans-20" x="466.064453"/>
     <use xlink:href="#DejaVuSans-46" x="497.851562"/>
     <use xlink:href="#DejaVuSans-45" x="555.371094"/>
     <use xlink:href="#DejaVuSans-52" x="618.554688"/>
     <use xlink:href="#DejaVuSans-4e" x="688.037109"/>
     <use xlink:href="#DejaVuSans-41" x="762.841797"/>
     <use xlink:href="#DejaVuSans-4e" x="831.25"/>
     <use xlink:href="#DejaVuSans-44" x="906.054688"/>
     <use xlink:href="#DejaVuSans-45" x="983.056641"/>
     <use xlink:href="#DejaVuSans-5a" x="1046.240234"/>
    </g>
   </g>
   <g id="text_32">
    <!-- 0.1% -->
    <g transform="translate(371.502201 227.171711) scale(0.1 -0.1)">
     <use xlink:href="#DejaVuSans-30"/>
     <use xlink:href="#DejaVuSans-2e" x="63.623047"/>
     <use xlink:href="#DejaVuSans-31" x="95.410156"/>
     <use xlink:href="#DejaVuSans-25" x="159.033203"/>
    </g>
   </g>
   <g id="text_33">
    <!-- Ranking de vendedores por cantidad de pedidos en el primer semestre de 2024 -->
    <g transform="translate(49.195352 20.88) scale(0.12 -0.12)">
     <defs>
      <path id="DejaVuSans-61" d="M 2194 1759 
Q 1497 1759 1228 1600 
Q 959 1441 959 1056 
Q 959 750 1161 570 
Q 1363 391 1709 391 
Q 2188 391 2477 730 
Q 2766 1069 2766 1631 
L 2766 1759 
L 2194 1759 
z
M 3341 1997 
L 3341 0 
L 2766 0 
L 2766 531 
Q 2569 213 2275 61 
Q 1981 -91 1556 -91 
Q 1019 -91 701 211 
Q 384 513 384 1019 
Q 384 1609 779 1909 
Q 1175 2209 1959 2209 
L 2766 2209 
L 2766 2266 
Q 2766 2663 2505 2880 
Q 2244 3097 1772 3097 
Q 1472 3097 1187 3025 
Q 903 2953 641 2809 
L 641 3341 
Q 956 3463 1253 3523 
Q 1550 3584 1831 3584 
Q 2591 3584 2966 3190 
Q 3341 2797 3341 1997 
z
" transform="scale(0.015625)"/>
      <path id="DejaVuSans-6e" d="M 3513 2113 
L 3513 0 
L 2938 0 
L 2938 2094 
Q 2938 2591 2744 2837 
Q 2550 3084 2163 3084 
Q 1697 3084 1428 2787 
Q 1159 2491 1159 1978 
L 1159 0 
L 581 0 
L 581 3500 
L 1159 3500 
L 1159 2956 
Q 1366 3272 1645 3428 
Q 1925 3584 2291 3584 
Q 2894 3584 3203 3211 
Q 3513 2838 3513 2113 
z
" transform="scale(0.015625)"/>
      <path id="DejaVuSans-6b" d="M 581 4863 
L 1159 4863 
L 1159 1991 
L 2875 3500 
L 3609 3500 
L 1753 1863 
L 3688 0 
L 2938 0 
L 1159 1709 
L 1159 0 
L 581 0 
L 581 4863 
z
" transform="scale(0.015625)"/>
      <path id="DejaVuSans-69" d="M 603 3500 
L 1178 3500 
L 1178 0 
L 603 0 
L 603 3500 
z
M 603 4863 
L 1178 4863 
L 1178 4134 
L 603 4134 
L 603 4863 
z
" transform="scale(0.015625)"/>
      <path id="DejaVuSans-67" d="M 2906 1791 
Q 2906 2416 2648 2759 
Q 2391 3103 1925 3103 
Q 1463 3103 1205 2759 
Q 947 2416 947 1791 
Q 947 1169 1205 825 
Q 1463 481 1925 481 
Q 2391 481 2648 825 
Q 2906 1169 2906 1791 
z
M 3481 434 
Q 3481 -459 3084 -895 
Q 2688 -1331 1869 -1331 
Q 1566 -1331 1297 -1286 
Q 1028 -1241 775 -1147 
L 775 -588 
Q 1028 -725 1275 -790 
Q 1522 -856 1778 -856 
Q 2344 -856 2625 -561 
Q 2906 -266 2906 331 
L 2906 616 
Q 2728 306 2450 153 
Q 2172 0 1784 0 
Q 1141 0 747 490 
Q 353 981 353 1791 
Q 353 2603 747 3093 
Q 1141 3584 1784 3584 
Q 2172 3584 2450 3431 
Q 2728 3278 2906 2969 
L 2906 3500 
L 3481 3500 
L 3481 434 
z
" transform="scale(0.015625)"/>
      <path id="DejaVuSans-64" d="M 2906 2969 
L 2906 4863 
L 3481 4863 
L 3481 0 
L 2906 0 
L 2906 525 
Q 2725 213 2448 61 
Q 2172 -91 1784 -91 
Q 1150 -91 751 415 
Q 353 922 353 1747 
Q 353 2572 751 3078 
Q 1150 3584 1784 3584 
Q 2172 3584 2448 3432 
Q 2725 3281 2906 2969 
z
M 947 1747 
Q 947 1113 1208 752 
Q 1469 391 1925 391 
Q 2381 391 2643 752 
Q 2906 1113 2906 1747 
Q 2906 2381 2643 2742 
Q 2381 3103 1925 3103 
Q 1469 3103 1208 2742 
Q 947 2381 947 1747 
z
" transform="scale(0.015625)"/>
      <path id="DejaVuSans-65" d="M 3597 1894 
L 3597 1613 
L 953 1613 
Q 991 1019 1311 708 
Q 1631 397 2203 397 
Q 2534 397 2845 478 
Q 3156 559 3463 722 
L 3463 178 
Q 3153 47 2828 -22 
Q 2503 -91 2169 -91 
Q 1331 -91 842 396 
Q 353 884 353 1716 
Q 353 2575 817 3079 
Q 1281 3584 2069 3584 
Q 2775 3584 3186 3129 
Q 3597 2675 3597 1894 
z
M 3022 2063 
Q 3016 2534 2758 2815 
Q 2500 3097 2075 3097 
Q 1594 3097 1305 2825 
Q 1016 2553 972 2059 
L 3022 2063 
z
" transform="scale(0.015625)"/>
      <path id="DejaVuSans-76" d="M 191 3500 
L 800 3500 
L 1894 563 
L 2988 3500 
L 3597 3500 
L 2284 0 
L 1503 0 
L 191 3500 
z
" transform="scale(0.015625)"/>
      <path id="DejaVuSans-6f" d="M 1959 3097 
Q 1497 3097 1228 2736 
Q 959 2375 959 1747 
Q 959 1119 1226 758 
Q 1494 397 1959 397 
Q 2419 397 2687 759 
Q 2956 1122 2956 1747 
Q 2956 2369 2687 2733 
Q 2419 3097 1959 3097 
z
M 1959 3584 
Q 2709 3584 3137 3096 
Q 3566 2609 3566 1747 
Q 3566 888 3137 398 
Q 2709 -91 1959 -91 
Q 1206 -91 779 398 
Q 353 888 353 1747 
Q 353 2609 779 3096 
Q 1206 3584 1959 3584 
z
" transform="scale(0.015625)"/>
      <path id="DejaVuSans-72" d="M 2631 2963 
Q 2534 3019 2420 3045 
Q 2306 3072 2169 3072 
Q 1681 3072 1420 2755 
Q 1159 2438 1159 1844 
L 1159 0 
L 581 0 
L 581 3500 
L 1159 3500 
L 1159 2956 
Q 1341 3275 1631 3429 
Q 1922 3584 2338 3584 
Q 2397 3584 2469 3576 
Q 2541 3569 2628 3553 
L 2631 2963 
z
" transform="scale(0.015625)"/>
      <path id="DejaVuSans-73" d="M 2834 3397 
L 2834 2853 
Q 2591 2978 2328 3040 
Q 2066 3103 1784 3103 
Q 1356 3103 1142 2972 
Q 928 2841 928 2578 
Q 928 2378 1081 2264 
Q 1234 2150 1697 2047 
L 1894 2003 
Q 2506 1872 2764 1633 
Q 3022 1394 3022 966 
Q 3022 478 2636 193 
Q 2250 -91 1575 -91 
Q 1294 -91 989 -36 
Q 684 19 347 128 
L 347 722 
Q 666 556 975 473 
Q 1284 391 1588 391 
Q 1994 391 2212 530 
Q 2431 669 2431 922 
Q 2431 1156 2273 1281 
Q 2116 1406 1581 1522 
L 1381 1569 
Q 847 1681 609 1914 
Q 372 2147 372 2553 
Q 372 3047 722 3315 
Q 1072 3584 1716 3584 
Q 2034 3584 2315 3537 
Q 2597 3491 2834 3397 
z
" transform="scale(0.015625)"/>
      <path id="DejaVuSans-70" d="M 1159 525 
L 1159 -1331 
L 581 -1331 
L 581 3500 
L 1159 3500 
L 1159 2969 
Q 1341 3281 1617 3432 
Q 1894 3584 2278 3584 
Q 2916 3584 3314 3078 
Q 3713 2572 3713 1747 
Q 3713 922 3314 415 
Q 2916 -91 2278 -91 
Q 1894 -91 1617 61 
Q 1341 213 1159 525 
z
M 3116 1747 
Q 3116 2381 2855 2742 
Q 2594 3103 2138 3103 
Q 1681 3103 1420 2742 
Q 1159 2381 1159 1747 
Q 1159 1113 1420 752 
Q 1681 391 2138 391 
Q 2594 391 2855 752 
Q 3116 1113 3116 1747 
z
" transform="scale(0.015625)"/>
      <path id="DejaVuSans-63" d="M 3122 3366 
L 3122 2828 
Q 2878 2963 2633 3030 
Q 2388 3097 2138 3097 
Q 1578 3097 1268 2742 
Q 959 2388 959 1747 
Q 959 1106 1268 751 
Q 1578 397 2138 397 
Q 2388 397 2633 464 
Q 2878 531 3122 666 
L 3122 134 
Q 2881 22 2623 -34 
Q 2366 -91 2075 -91 
Q 1284 -91 818 406 
Q 353 903 353 1747 
Q 353 2603 823 3093 
Q 1294 3584 2113 3584 
Q 2378 3584 2631 3529 
Q 2884 3475 3122 3366 
z
" transform="scale(0.015625)"/>
      <path id="DejaVuSans-74" d="M 1172 4494 
L 1172 3500 
L 2356 3500 
L 2356 3053 
L 1172 3053 
L 1172 1153 
Q 1172 725 1289 603 
Q 1406 481 1766 481 
L 2356 481 
L 2356 0 
L 1766 0 
Q 1100 0 847 248 
Q 594 497 594 1153 
L 594 3053 
L 172 3053 
L 172 3500 
L 594 3500 
L 594 4494 
L 1172 4494 
z
" transform="scale(0.015625)"/>
      <path id="DejaVuSans-6c" d="M 603 4863 
L 1178 4863 
L 1178 0 
L 603 0 
L 603 4863 
z
" transform="scale(0.015625)"/>
      <path id="DejaVuSans-6d" d="M 3328 2828 
Q 3544 3216 3844 3400 
Q 4144 3584 4550 3584 
Q 5097 3584 5394 3201 
Q 5691 2819 5691 2113 
L 5691 0 
L 5113 0 
L 5113 2094 
Q 5113 2597 4934 2840 
Q 4756 3084 4391 3084 
Q 3944 3084 3684 2787 
Q 3425 2491 3425 1978 
L 3425 0 
L 2847 0 
L 2847 2094 
Q 2847 2600 2669 2842 
Q 2491 3084 2119 3084 
Q 1678 3084 1418 2786 
Q 1159 2488 1159 1978 
L 1159 0 
L 581 0 
L 581 3500 
L 1159 3500 
L 1159 2956 
Q 1356 3278 1631 3431 
Q 1906 3584 2284 3584 
Q 2666 3584 2933 3390 
Q 3200 3197 3328 2828 
z
" transform="scale(0.015625)"/>
     </defs>
     <use xlink:href="#DejaVuSans-52"/>
     <use xlink:href="#DejaVuSans-61" x="67.232422"/>
     <use xlink:href="#DejaVuSans-6e" x="128.511719"/>
     <use xlink:href="#DejaVuSans-6b" x="191.890625"/>
     <use xlink:href="#DejaVuSans-69" x="249.800781"/>
     <use xlink:href="#DejaVuSans-6e" x="277.583984"/>
     <use xlink:href="#DejaVuSans-67" x="340.962891"/>
     <use xlink:href="#DejaVuSans-20" x="404.439453"/>
     <use xlink:href="#DejaVuSans-64" x="436.226562"/>
     <use xlink:href="#DejaVuSans-65" x="499.703125"/>
     <use xlink:href="#DejaVuSans-20" x="561.226562"/>
     <use xlink:href="#DejaVuSans-76" x="593.013672"/>
     <use xlink:href="#DejaVuSans-65" x="652.193359"/>
     <use xlink:href="#DejaVuSans-6e" x="713.716797"/>
     <use xlink:href="#DejaVuSans-64" x="777.095703"/>
     <use xlink:href="#DejaVuSans-65" x="840.572266"/>
     <use xlink:href="#DejaVuSans-64" x="902.095703"/>
     <use xlink:href="#DejaVuSans-6f" x="965.572266"/>
     <use xlink:href="#DejaVuSans-72" x="1026.753906"/>
     <use xlink:href="#DejaVuSans-65" x="1065.617188"/>
     <use xlink:href="#DejaVuSans-73" x="1127.140625"/>
     <use xlink:href="#DejaVuSans-20" x="1179.240234"/>
     <use xlink:href="#DejaVuSans-70" x="1211.027344"/>
     <use xlink:href="#DejaVuSans-6f" x="1274.503906"/>
     <use xlink:href="#DejaVuSans-72" x="1335.685547"/>
     <use xlink:href="#DejaVuSans-20" x="1376.798828"/>
     <use xlink:href="#DejaVuSans-63" x="1408.585938"/>
     <use xlink:href="#DejaVuSans-61" x="1463.566406"/>
     <use xlink:href="#DejaVuSans-6e" x="1524.845703"/>
     <use xlink:href="#DejaVuSans-74" x="1588.224609"/>
     <use xlink:href="#DejaVuSans-69" x="1627.433594"/>
     <use xlink:href="#DejaVuSans-64" x="1655.216797"/>
     <use xlink:href="#DejaVuSans-61" x="1718.693359"/>
     <use xlink:href="#DejaVuSans-64" x="1779.972656"/>
     <use xlink:href="#DejaVuSans-20" x="1843.449219"/>
     <use xlink:href="#DejaVuSans-64" x="1875.236328"/>
     <use xlink:href="#DejaVuSans-65" x="1938.712891"/>
     <use xlink:href="#DejaVuSans-20" x="2000.236328"/>
     <use xlink:href="#DejaVuSans-70" x="2032.023438"/>
     <use xlink:href="#DejaVuSans-65" x="2095.5"/>
     <use xlink:href="#DejaVuSans-64" x="2157.023438"/>
     <use xlink:href="#DejaVuSans-69" x="2220.5"/>
     <use xlink:href="#DejaVuSans-64" x="2248.283203"/>
     <use xlink:href="#DejaVuSans-6f" x="2311.759766"/>
     <use xlink:href="#DejaVuSans-73" x="2372.941406"/>
     <use xlink:href="#DejaVuSans-20" x="2425.041016"/>
     <use xlink:href="#DejaVuSans-65" x="2456.828125"/>
     <use xlink:href="#DejaVuSans-6e" x="2518.351562"/>
     <use xlink:href="#DejaVuSans-20" x="2581.730469"/>
     <use xlink:href="#DejaVuSans-65" x="2613.517578"/>
     <use xlink:href="#DejaVuSans-6c" x="2675.041016"/>
     <use xlink:href="#DejaVuSans-20" x="2702.824219"/>
     <use xlink:href="#DejaVuSans-70" x="2734.611328"/>
     <use xlink:href="#DejaVuSans-72" x="2798.087891"/>
     <use xlink:href="#DejaVuSans-69" x="2839.201172"/>
     <use xlink:href="#DejaVuSans-6d" x="2866.984375"/>
     <use xlink:href="#DejaVuSans-65" x="2964.396484"/>
     <use xlink:href="#DejaVuSans-72" x="3025.919922"/>
     <use xlink:href="#DejaVuSans-20" x="3067.033203"/>
     <use xlink:href="#DejaVuSans-73" x="3098.820312"/>
     <use xlink:href="#DejaVuSans-65" x="3150.919922"/>
     <use xlink:href="#DejaVuSans-6d" x="3212.443359"/>
     <use xlink:href="#DejaVuSans-65" x="3309.855469"/>
     <use xlink:href="#DejaVuSans-73" x="3371.378906"/>
     <use xlink:href="#DejaVuSans-74" x="3423.478516"/>
     <use xlink:href="#DejaVuSans-72" x="3462.6875"/>
     <use xlink:href="#DejaVuSans-65" x="3501.550781"/>
     <use xlink:href="#DejaVuSans-20" x="3563.074219"/>
     <use xlink:href="#DejaVuSans-64" x="3594.861328"/>
     <use xlink:href="#DejaVuSans-65" x="3658.337891"/>
     <use xlink:href="#DejaVuSans-20" x="3719.861328"/>
     <use xlink:href="#DejaVuSans-32" x="3751.648438"/>
     <use xlink:href="#DejaVuSans-30" x="3815.271484"/>
     <use xlink:href="#DejaVuSans-32" x="3878.894531"/>
     <use xlink:href="#DejaVuSans-34" x="3942.517578"/>
    </g>
   </g>
  </g>
 </g>
</svg>
