<?xml version="1.0" encoding="utf-8" standalone="no"?>
<!DOCTYPE svg PUBLIC "-//W3C//DTD SVG 1.1//EN"
  "http://www.w3.org/Graphics/SVG/1.1/DTD/svg11.dtd">
<svg xmlns:xlink="http://www.w3.org/1999/xlink" width="576pt" height="432pt" viewBox="0 0 576 432" xmlns="http://www.w3.org/2000/svg" version="1.1">
 <metadata>
  <rdf:RDF xmlns:dc="http://purl.org/dc/elements/1.1/" xmlns:cc="http://creativecommons.org/ns#" xmlns:rdf="http://www.w3.org/1999/02/22-rdf-syntax-ns#">
   <cc:Work>
    <dc:type rdf:resource="http://purl.org/dc/dcmitype/StillImage"/>
    <dc:date>2025-04-04T16:31:41.155081</dc:date>
    <dc:format>image/svg+xml</dc:format>
    <dc:creator>
     <cc:Agent>
      <dc:title>Matplotlib v3.8.3, https://matplotlib.org/</dc:title>
     </cc:Agent>
    </dc:creator>
   </cc:Work>
  </rdf:RDF>
 </metadata>
 <defs>
  <style type="text/css">*{stroke-linejoin: round; stroke-linecap: butt}</style>
 </defs>
 <g id="figure_1">
  <g id="patch_1">
   <path d="M 0 432 
L 576 432 
L 576 0 
L 0 0 
z
" style="fill: #ffffff"/>
  </g>
  <g id="axes_1">
   <g id="patch_2">
    <path d="M 100.778827 146.092513 
L 512.673084 146.092513 
L 512.673084 26.88 
L 100.778827 26.88 
z
" style="fill: #ffffff"/>
   </g>
   <g id="patch_3">
    <path d="M 119.501293 146.092513 
L 150.068585 146.092513 
L 150.068585 32.556786 
L 119.501293 32.556786 
z
" clip-path="url(#p6b94c80773)" style="fill: #87ceeb"/>
   </g>
   <g id="patch_4">
    <path d="M 157.710408 146.092513 
L 188.2777 146.092513 
L 188.2777 39.848072 
L 157.710408 39.848072 
z
" clip-path="url(#p6b94c80773)" style="fill: #87ceeb"/>
   </g>
   <g id="patch_5">
    <path d="M 195.919523 146.092513 
L 226.486814 146.092513 
L 226.486814 81.512559 
L 195.919523 81.512559 
z
" clip-path="url(#p6b94c80773)" style="fill: #87ceeb"/>
   </g>
   <g id="patch_6">
    <path d="M 234.128637 146.092513 
L 264.695929 146.092513 
L 264.695929 91.581476 
L 234.128637 91.581476 
z
" clip-path="url(#p6b94c80773)" style="fill: #87ceeb"/>
   </g>
   <g id="patch_7">
    <path d="M 272.337752 146.092513 
L 302.905044 146.092513 
L 302.905044 94.011905 
L 272.337752 94.011905 
z
" clip-path="url(#p6b94c80773)" style="fill: #87ceeb"/>
   </g>
   <g id="patch_8">
    <path d="M 310.546867 146.092513 
L 341.114159 146.092513 
L 341.114159 121.788229 
L 310.546867 121.788229 
z
" clip-path="url(#p6b94c80773)" style="fill: #87ceeb"/>
   </g>
   <g id="patch_9">
    <path d="M 348.755982 146.092513 
L 379.323273 146.092513 
L 379.323273 122.135433 
L 348.755982 122.135433 
z
" clip-path="url(#p6b94c80773)" style="fill: #87ceeb"/>
   </g>
   <g id="patch_10">
    <path d="M 386.965096 146.092513 
L 417.532388 146.092513 
L 417.532388 123.177045 
L 386.965096 123.177045 
z
" clip-path="url(#p6b94c80773)" style="fill: #87ceeb"/>
   </g>
   <g id="patch_11">
    <path d="M 425.174211 146.092513 
L 455.741503 146.092513 
L 455.741503 126.99629 
L 425.174211 126.99629 
z
" clip-path="url(#p6b94c80773)" style="fill: #87ceeb"/>
   </g>
   <g id="patch_12">
    <path d="M 463.383326 146.092513 
L 493.950618 146.092513 
L 493.950618 128.037902 
L 463.383326 128.037902 
z
" clip-path="url(#p6b94c80773)" style="fill: #87ceeb"/>
   </g>
   <g id="matplotlib.axis_1">
    <g id="xtick_1">
     <g id="line2d_1">
      <defs>
       <path id="m3fcf66bdab" d="M 0 0 
L 0 3.5 
" style="stroke: #000000; stroke-width: 0.8"/>
      </defs>
      <g>
       <use xlink:href="#m3fcf66bdab" x="134.784939" y="146.092513" style="stroke: #000000; stroke-width: 0.8"/>
      </g>
     </g>
     <g id="text_1">
      <!-- WARBEL DO BRASIL SÃO PAULO COM. DE ESTEIRAS DE TRANSP. LTDA. -->
      <g transform="translate(13.281344 405.374955) rotate(-45) scale(0.1 -0.1)">
       <defs>
        <path id="DejaVuSans-57" d="M 213 4666 
L 850 4666 
L 1831 722 
L 2809 4666 
L 3519 4666 
L 4500 722 
L 5478 4666 
L 6119 4666 
L 4947 0 
L 4153 0 
L 3169 4050 
L 2175 0 
L 1381 0 
L 213 4666 
z
" transform="scale(0.015625)"/>
        <path id="DejaVuSans-41" d="M 2188 4044 
L 1331 1722 
L 3047 1722 
L 2188 4044 
z
M 1831 4666 
L 2547 4666 
L 4325 0 
L 3669 0 
L 3244 1197 
L 1141 1197 
L 716 0 
L 50 0 
L 1831 4666 
z
" transform="scale(0.015625)"/>
        <path id="DejaVuSans-52" d="M 2841 2188 
Q 3044 2119 3236 1894 
Q 3428 1669 3622 1275 
L 4263 0 
L 3584 0 
L 2988 1197 
Q 2756 1666 2539 1819 
Q 2322 1972 1947 1972 
L 1259 1972 
L 1259 0 
L 628 0 
L 628 4666 
L 2053 4666 
Q 2853 4666 3247 4331 
Q 3641 3997 3641 3322 
Q 3641 2881 3436 2590 
Q 3231 2300 2841 2188 
z
M 1259 4147 
L 1259 2491 
L 2053 2491 
Q 2509 2491 2742 2702 
Q 2975 2913 2975 3322 
Q 2975 3731 2742 3939 
Q 2509 4147 2053 4147 
L 1259 4147 
z
" transform="scale(0.015625)"/>
        <path id="DejaVuSans-42" d="M 1259 2228 
L 1259 519 
L 2272 519 
Q 2781 519 3026 730 
Q 3272 941 3272 1375 
Q 3272 1813 3026 2020 
Q 2781 2228 2272 2228 
L 1259 2228 
z
M 1259 4147 
L 1259 2741 
L 2194 2741 
Q 2656 2741 2882 2914 
Q 3109 3088 3109 3444 
Q 3109 3797 2882 3972 
Q 2656 4147 2194 4147 
L 1259 4147 
z
M 628 4666 
L 2241 4666 
Q 2963 4666 3353 4366 
Q 3744 4066 3744 3513 
Q 3744 3084 3544 2831 
Q 3344 2578 2956 2516 
Q 3422 2416 3680 2098 
Q 3938 1781 3938 1306 
Q 3938 681 3513 340 
Q 3088 0 2303 0 
L 628 0 
L 628 4666 
z
" transform="scale(0.015625)"/>
        <path id="DejaVuSans-45" d="M 628 4666 
L 3578 4666 
L 3578 4134 
L 1259 4134 
L 1259 2753 
L 3481 2753 
L 3481 2222 
L 1259 2222 
L 1259 531 
L 3634 531 
L 3634 0 
L 628 0 
L 628 4666 
z
" transform="scale(0.015625)"/>
        <path id="DejaVuSans-4c" d="M 628 4666 
L 1259 4666 
L 1259 531 
L 3531 531 
L 3531 0 
L 628 0 
L 628 4666 
z
" transform="scale(0.015625)"/>
        <path id="DejaVuSans-20" transform="scale(0.015625)"/>
        <path id="DejaVuSans-44" d="M 1259 4147 
L 1259 519 
L 2022 519 
Q 2988 519 3436 956 
Q 3884 1394 3884 2338 
Q 3884 3275 3436 3711 
Q 2988 4147 2022 4147 
L 1259 4147 
z
M 628 4666 
L 1925 4666 
Q 3281 4666 3915 4102 
Q 4550 3538 4550 2338 
Q 4550 1131 3912 565 
Q 3275 0 1925 0 
L 628 0 
L 628 4666 
z
" transform="scale(0.015625)"/>
        <path id="DejaVuSans-4f" d="M 2522 4238 
Q 1834 4238 1429 3725 
Q 1025 3213 1025 2328 
Q 1025 1447 1429 934 
Q 1834 422 2522 422 
Q 3209 422 3611 934 
Q 4013 1447 4013 2328 
Q 4013 3213 3611 3725 
Q 3209 4238 2522 4238 
z
M 2522 4750 
Q 3503 4750 4090 4092 
Q 4678 3434 4678 2328 
Q 4678 1225 4090 567 
Q 3503 -91 2522 -91 
Q 1538 -91 948 565 
Q 359 1222 359 2328 
Q 359 3434 948 4092 
Q 1538 4750 2522 4750 
z
" transform="scale(0.015625)"/>
        <path id="DejaVuSans-53" d="M 3425 4513 
L 3425 3897 
Q 3066 4069 2747 4153 
Q 2428 4238 2131 4238 
Q 1616 4238 1336 4038 
Q 1056 3838 1056 3469 
Q 1056 3159 1242 3001 
Q 1428 2844 1947 2747 
L 2328 2669 
Q 3034 2534 3370 2195 
Q 3706 1856 3706 1288 
Q 3706 609 3251 259 
Q 2797 -91 1919 -91 
Q 1588 -91 1214 -16 
Q 841 59 441 206 
L 441 856 
Q 825 641 1194 531 
Q 1563 422 1919 422 
Q 2459 422 2753 634 
Q 3047 847 3047 1241 
Q 3047 1584 2836 1778 
Q 2625 1972 2144 2069 
L 1759 2144 
Q 1053 2284 737 2584 
Q 422 2884 422 3419 
Q 422 4038 858 4394 
Q 1294 4750 2059 4750 
Q 2388 4750 2728 4690 
Q 3069 4631 3425 4513 
z
" transform="scale(0.015625)"/>
        <path id="DejaVuSans-49" d="M 628 4666 
L 1259 4666 
L 1259 0 
L 628 0 
L 628 4666 
z
" transform="scale(0.015625)"/>
        <path id="DejaVuSans-c3" d="M 2188 4044 
L 1331 1722 
L 3047 1722 
L 2188 4044 
z
M 1831 4666 
L 2547 4666 
L 4325 0 
L 3669 0 
L 3244 1197 
L 1141 1197 
L 716 0 
L 50 0 
L 1831 4666 
z
M 2172 5330 
L 1993 5433 
Q 1915 5477 1866 5494 
Q 1818 5511 1781 5511 
Q 1668 5511 1605 5433 
Q 1543 5355 1543 5215 
L 1543 5196 
L 1153 5196 
Q 1153 5511 1314 5695 
Q 1475 5880 1743 5880 
Q 1856 5880 1951 5855 
Q 2047 5830 2197 5746 
L 2375 5652 
Q 2447 5611 2500 5592 
Q 2553 5574 2600 5574 
Q 2700 5574 2762 5653 
Q 2825 5733 2825 5861 
L 2825 5880 
L 3215 5880 
Q 3209 5568 3048 5382 
Q 2887 5196 2625 5196 
Q 2518 5196 2426 5221 
Q 2334 5246 2172 5330 
z
" transform="scale(0.015625)"/>
        <path id="DejaVuSans-50" d="M 1259 4147 
L 1259 2394 
L 2053 2394 
Q 2494 2394 2734 2622 
Q 2975 2850 2975 3272 
Q 2975 3691 2734 3919 
Q 2494 4147 2053 4147 
L 1259 4147 
z
M 628 4666 
L 2053 4666 
Q 2838 4666 3239 4311 
Q 3641 3956 3641 3272 
Q 3641 2581 3239 2228 
Q 2838 1875 2053 1875 
L 1259 1875 
L 1259 0 
L 628 0 
L 628 4666 
z
" transform="scale(0.015625)"/>
        <path id="DejaVuSans-55" d="M 556 4666 
L 1191 4666 
L 1191 1831 
Q 1191 1081 1462 751 
Q 1734 422 2344 422 
Q 2950 422 3222 751 
Q 3494 1081 3494 1831 
L 3494 4666 
L 4128 4666 
L 4128 1753 
Q 4128 841 3676 375 
Q 3225 -91 2344 -91 
Q 1459 -91 1007 375 
Q 556 841 556 1753 
L 556 4666 
z
" transform="scale(0.015625)"/>
        <path id="DejaVuSans-43" d="M 4122 4306 
L 4122 3641 
Q 3803 3938 3442 4084 
Q 3081 4231 2675 4231 
Q 1875 4231 1450 3742 
Q 1025 3253 1025 2328 
Q 1025 1406 1450 917 
Q 1875 428 2675 428 
Q 3081 428 3442 575 
Q 3803 722 4122 1019 
L 4122 359 
Q 3791 134 3420 21 
Q 3050 -91 2638 -91 
Q 1578 -91 968 557 
Q 359 1206 359 2328 
Q 359 3453 968 4101 
Q 1578 4750 2638 4750 
Q 3056 4750 3426 4639 
Q 3797 4528 4122 4306 
z
" transform="scale(0.015625)"/>
        <path id="DejaVuSans-4d" d="M 628 4666 
L 1569 4666 
L 2759 1491 
L 3956 4666 
L 4897 4666 
L 4897 0 
L 4281 0 
L 4281 4097 
L 3078 897 
L 2444 897 
L 1241 4097 
L 1241 0 
L 628 0 
L 628 4666 
z
" transform="scale(0.015625)"/>
        <path id="DejaVuSans-2e" d="M 684 794 
L 1344 794 
L 1344 0 
L 684 0 
L 684 794 
z
" transform="scale(0.015625)"/>
        <path id="DejaVuSans-54" d="M -19 4666 
L 3928 4666 
L 3928 4134 
L 2272 4134 
L 2272 0 
L 1638 0 
L 1638 4134 
L -19 4134 
L -19 4666 
z
" transform="scale(0.015625)"/>
        <path id="DejaVuSans-4e" d="M 628 4666 
L 1478 4666 
L 3547 763 
L 3547 4666 
L 4159 4666 
L 4159 0 
L 3309 0 
L 1241 3903 
L 1241 0 
L 628 0 
L 628 4666 
z
" transform="scale(0.015625)"/>
       </defs>
       <use xlink:href="#DejaVuSans-57"/>
       <use xlink:href="#DejaVuSans-41" x="93.376953"/>
       <use xlink:href="#DejaVuSans-52" x="161.785156"/>
       <use xlink:href="#DejaVuSans-42" x="231.267578"/>
       <use xlink:href="#DejaVuSans-45" x="299.871094"/>
       <use xlink:href="#DejaVuSans-4c" x="363.054688"/>
       <use xlink:href="#DejaVuSans-20" x="418.767578"/>
       <use xlink:href="#DejaVuSans-44" x="450.554688"/>
       <use xlink:href="#DejaVuSans-4f" x="527.556641"/>
       <use xlink:href="#DejaVuSans-20" x="606.267578"/>
       <use xlink:href="#DejaVuSans-42" x="638.054688"/>
       <use xlink:href="#DejaVuSans-52" x="706.658203"/>
       <use xlink:href="#DejaVuSans-41" x="772.140625"/>
       <use xlink:href="#DejaVuSans-53" x="840.548828"/>
       <use xlink:href="#DejaVuSans-49" x="904.025391"/>
       <use xlink:href="#DejaVuSans-4c" x="933.517578"/>
       <use xlink:href="#DejaVuSans-20" x="989.230469"/>
       <use xlink:href="#DejaVuSans-53" x="1021.017578"/>
       <use xlink:href="#DejaVuSans-c3" x="1086.369141"/>
       <use xlink:href="#DejaVuSans-4f" x="1153.027344"/>
       <use xlink:href="#DejaVuSans-20" x="1231.738281"/>
       <use xlink:href="#DejaVuSans-50" x="1263.525391"/>
       <use xlink:href="#DejaVuSans-41" x="1317.453125"/>
       <use xlink:href="#DejaVuSans-55" x="1385.861328"/>
       <use xlink:href="#DejaVuSans-4c" x="1459.054688"/>
       <use xlink:href="#DejaVuSans-4f" x="1511.142578"/>
       <use xlink:href="#DejaVuSans-20" x="1589.853516"/>
       <use xlink:href="#DejaVuSans-43" x="1621.640625"/>
       <use xlink:href="#DejaVuSans-4f" x="1691.464844"/>
       <use xlink:href="#DejaVuSans-4d" x="1770.175781"/>
       <use xlink:href="#DejaVuSans-2e" x="1856.455078"/>
       <use xlink:href="#DejaVuSans-20" x="1888.242188"/>
       <use xlink:href="#DejaVuSans-44" x="1920.029297"/>
       <use xlink:href="#DejaVuSans-45" x="1997.03125"/>
       <use xlink:href="#DejaVuSans-20" x="2060.214844"/>
       <use xlink:href="#DejaVuSans-45" x="2092.001953"/>
       <use xlink:href="#DejaVuSans-53" x="2155.185547"/>
       <use xlink:href="#DejaVuSans-54" x="2218.662109"/>
       <use xlink:href="#DejaVuSans-45" x="2279.746094"/>
       <use xlink:href="#DejaVuSans-49" x="2342.929688"/>
       <use xlink:href="#DejaVuSans-52" x="2372.421875"/>
       <use xlink:href="#DejaVuSans-41" x="2437.904297"/>
       <use xlink:href="#DejaVuSans-53" x="2506.3125"/>
       <use xlink:href="#DejaVuSans-20" x="2569.789062"/>
       <use xlink:href="#DejaVuSans-44" x="2601.576172"/>
       <use xlink:href="#DejaVuSans-45" x="2678.578125"/>
       <use xlink:href="#DejaVuSans-20" x="2741.761719"/>
       <use xlink:href="#DejaVuSans-54" x="2773.548828"/>
       <use xlink:href="#DejaVuSans-52" x="2834.632812"/>
       <use xlink:href="#DejaVuSans-41" x="2900.115234"/>
       <use xlink:href="#DejaVuSans-4e" x="2968.523438"/>
       <use xlink:href="#DejaVuSans-53" x="3043.328125"/>
       <use xlink:href="#DejaVuSans-50" x="3106.804688"/>
       <use xlink:href="#DejaVuSans-2e" x="3151.482422"/>
       <use xlink:href="#DejaVuSans-20" x="3183.269531"/>
       <use xlink:href="#DejaVuSans-4c" x="3215.056641"/>
       <use xlink:href="#DejaVuSans-54" x="3257.019531"/>
       <use xlink:href="#DejaVuSans-44" x="3318.103516"/>
       <use xlink:href="#DejaVuSans-41" x="3393.355469"/>
       <use xlink:href="#DejaVuSans-2e" x="3460.013672"/>
      </g>
     </g>
    </g>
    <g id="xtick_2">
     <g id="line2d_2">
      <g>
       <use xlink:href="#m3fcf66bdab" x="172.994054" y="146.092513" style="stroke: #000000; stroke-width: 0.8"/>
      </g>
     </g>
     <g id="text_2">
      <!-- VOTORANTIM CIMENTOS S/A -->
      <g transform="translate(124.501444 259.352985) rotate(-45) scale(0.1 -0.1)">
       <defs>
        <path id="DejaVuSans-56" d="M 1831 0 
L 50 4666 
L 709 4666 
L 2188 738 
L 3669 4666 
L 4325 4666 
L 2547 0 
L 1831 0 
z
" transform="scale(0.015625)"/>
        <path id="DejaVuSans-2f" d="M 1625 4666 
L 2156 4666 
L 531 -594 
L 0 -594 
L 1625 4666 
z
" transform="scale(0.015625)"/>
       </defs>
       <use xlink:href="#DejaVuSans-56"/>
       <use xlink:href="#DejaVuSans-4f" x="66.658203"/>
       <use xlink:href="#DejaVuSans-54" x="145.369141"/>
       <use xlink:href="#DejaVuSans-4f" x="206.453125"/>
       <use xlink:href="#DejaVuSans-52" x="285.164062"/>
       <use xlink:href="#DejaVuSans-41" x="350.646484"/>
       <use xlink:href="#DejaVuSans-4e" x="419.054688"/>
       <use xlink:href="#DejaVuSans-54" x="493.859375"/>
       <use xlink:href="#DejaVuSans-49" x="554.943359"/>
       <use xlink:href="#DejaVuSans-4d" x="584.435547"/>
       <use xlink:href="#DejaVuSans-20" x="670.714844"/>
       <use xlink:href="#DejaVuSans-43" x="702.501953"/>
       <use xlink:href="#DejaVuSans-49" x="772.326172"/>
       <use xlink:href="#DejaVuSans-4d" x="801.818359"/>
       <use xlink:href="#DejaVuSans-45" x="888.097656"/>
       <use xlink:href="#DejaVuSans-4e" x="951.28125"/>
       <use xlink:href="#DejaVuSans-54" x="1026.085938"/>
       <use xlink:href="#DejaVuSans-4f" x="1087.169922"/>
       <use xlink:href="#DejaVuSans-53" x="1165.880859"/>
       <use xlink:href="#DejaVuSans-20" x="1229.357422"/>
       <use xlink:href="#DejaVuSans-53" x="1261.144531"/>
       <use xlink:href="#DejaVuSans-2f" x="1324.621094"/>
       <use xlink:href="#DejaVuSans-41" x="1358.3125"/>
      </g>
     </g>
    </g>
    <g id="xtick_3">
     <g id="line2d_3">
      <g>
       <use xlink:href="#m3fcf66bdab" x="211.203168" y="146.092513" style="stroke: #000000; stroke-width: 0.8"/>
      </g>
     </g>
     <g id="text_3">
      <!-- MONDELEZ BRASIL LTDA. -->
      <g transform="translate(168.645284 247.483535) rotate(-45) scale(0.1 -0.1)">
       <defs>
        <path id="DejaVuSans-5a" d="M 359 4666 
L 4025 4666 
L 4025 4184 
L 1075 531 
L 4097 531 
L 4097 0 
L 288 0 
L 288 481 
L 3238 4134 
L 359 4134 
L 359 4666 
z
" transform="scale(0.015625)"/>
       </defs>
       <use xlink:href="#DejaVuSans-4d"/>
       <use xlink:href="#DejaVuSans-4f" x="86.279297"/>
       <use xlink:href="#DejaVuSans-4e" x="164.990234"/>
       <use xlink:href="#DejaVuSans-44" x="239.794922"/>
       <use xlink:href="#DejaVuSans-45" x="316.796875"/>
       <use xlink:href="#DejaVuSans-4c" x="379.980469"/>
       <use xlink:href="#DejaVuSans-45" x="435.693359"/>
       <use xlink:href="#DejaVuSans-5a" x="498.876953"/>
       <use xlink:href="#DejaVuSans-20" x="567.382812"/>
       <use xlink:href="#DejaVuSans-42" x="599.169922"/>
       <use xlink:href="#DejaVuSans-52" x="667.773438"/>
       <use xlink:href="#DejaVuSans-41" x="733.255859"/>
       <use xlink:href="#DejaVuSans-53" x="801.664062"/>
       <use xlink:href="#DejaVuSans-49" x="865.140625"/>
       <use xlink:href="#DejaVuSans-4c" x="894.632812"/>
       <use xlink:href="#DejaVuSans-20" x="950.345703"/>
       <use xlink:href="#DejaVuSans-4c" x="982.132812"/>
       <use xlink:href="#DejaVuSans-54" x="1024.095703"/>
       <use xlink:href="#DejaVuSans-44" x="1085.179688"/>
       <use xlink:href="#DejaVuSans-41" x="1160.431641"/>
       <use xlink:href="#DejaVuSans-2e" x="1227.089844"/>
      </g>
     </g>
    </g>
    <g id="xtick_4">
     <g id="line2d_4">
      <g>
       <use xlink:href="#m3fcf66bdab" x="249.412283" y="146.092513" style="stroke: #000000; stroke-width: 0.8"/>
      </g>
     </g>
     <g id="text_4">
      <!-- TRANSFERÊNCIA DE FILIAIS -->
      <g transform="translate(203.048175 255.095981) rotate(-45) scale(0.1 -0.1)">
       <defs>
        <path id="DejaVuSans-46" d="M 628 4666 
L 3309 4666 
L 3309 4134 
L 1259 4134 
L 1259 2759 
L 3109 2759 
L 3109 2228 
L 1259 2228 
L 1259 0 
L 628 0 
L 628 4666 
z
" transform="scale(0.015625)"/>
        <path id="DejaVuSans-ca" d="M 628 4666 
L 3578 4666 
L 3578 4134 
L 1259 4134 
L 1259 2753 
L 3481 2753 
L 3481 2222 
L 1259 2222 
L 1259 531 
L 3634 531 
L 3634 0 
L 628 0 
L 628 4666 
z
M 1802 5927 
L 2390 5927 
L 3049 5096 
L 2615 5096 
L 2096 5652 
L 1577 5096 
L 1143 5096 
L 1802 5927 
z
" transform="scale(0.015625)"/>
       </defs>
       <use xlink:href="#DejaVuSans-54"/>
       <use xlink:href="#DejaVuSans-52" x="61.083984"/>
       <use xlink:href="#DejaVuSans-41" x="126.566406"/>
       <use xlink:href="#DejaVuSans-4e" x="194.974609"/>
       <use xlink:href="#DejaVuSans-53" x="269.779297"/>
       <use xlink:href="#DejaVuSans-46" x="333.255859"/>
       <use xlink:href="#DejaVuSans-45" x="390.775391"/>
       <use xlink:href="#DejaVuSans-52" x="453.958984"/>
       <use xlink:href="#DejaVuSans-ca" x="523.441406"/>
       <use xlink:href="#DejaVuSans-4e" x="586.625"/>
       <use xlink:href="#DejaVuSans-43" x="661.429688"/>
       <use xlink:href="#DejaVuSans-49" x="731.253906"/>
       <use xlink:href="#DejaVuSans-41" x="760.746094"/>
       <use xlink:href="#DejaVuSans-20" x="829.154297"/>
       <use xlink:href="#DejaVuSans-44" x="860.941406"/>
       <use xlink:href="#DejaVuSans-45" x="937.943359"/>
       <use xlink:href="#DejaVuSans-20" x="1001.126953"/>
       <use xlink:href="#DejaVuSans-46" x="1032.914062"/>
       <use xlink:href="#DejaVuSans-49" x="1090.433594"/>
       <use xlink:href="#DejaVuSans-4c" x="1119.925781"/>
       <use xlink:href="#DejaVuSans-49" x="1175.638672"/>
       <use xlink:href="#DejaVuSans-41" x="1205.130859"/>
       <use xlink:href="#DejaVuSans-49" x="1273.539062"/>
       <use xlink:href="#DejaVuSans-53" x="1303.03125"/>
      </g>
     </g>
    </g>
    <g id="xtick_5">
     <g id="line2d_5">
      <g>
       <use xlink:href="#m3fcf66bdab" x="287.621398" y="146.092513" style="stroke: #000000; stroke-width: 0.8"/>
      </g>
     </g>
     <g id="text_5">
      <!-- AJUSTE DE CORTE -->
      <g transform="translate(257.836182 221.938197) rotate(-45) scale(0.1 -0.1)">
       <defs>
        <path id="DejaVuSans-4a" d="M 628 4666 
L 1259 4666 
L 1259 325 
Q 1259 -519 939 -900 
Q 619 -1281 -91 -1281 
L -331 -1281 
L -331 -750 
L -134 -750 
Q 284 -750 456 -515 
Q 628 -281 628 325 
L 628 4666 
z
" transform="scale(0.015625)"/>
       </defs>
       <use xlink:href="#DejaVuSans-41"/>
       <use xlink:href="#DejaVuSans-4a" x="68.408203"/>
       <use xlink:href="#DejaVuSans-55" x="97.900391"/>
       <use xlink:href="#DejaVuSans-53" x="171.09375"/>
       <use xlink:href="#DejaVuSans-54" x="234.570312"/>
       <use xlink:href="#DejaVuSans-45" x="295.654297"/>
       <use xlink:href="#DejaVuSans-20" x="358.837891"/>
       <use xlink:href="#DejaVuSans-44" x="390.625"/>
       <use xlink:href="#DejaVuSans-45" x="467.626953"/>
       <use xlink:href="#DejaVuSans-20" x="530.810547"/>
       <use xlink:href="#DejaVuSans-43" x="562.597656"/>
       <use xlink:href="#DejaVuSans-4f" x="632.421875"/>
       <use xlink:href="#DejaVuSans-52" x="711.132812"/>
       <use xlink:href="#DejaVuSans-54" x="773.365234"/>
       <use xlink:href="#DejaVuSans-45" x="834.449219"/>
      </g>
     </g>
    </g>
    <g id="xtick_6">
     <g id="line2d_6">
      <g>
       <use xlink:href="#m3fcf66bdab" x="325.830513" y="146.092513" style="stroke: #000000; stroke-width: 0.8"/>
      </g>
     </g>
     <g id="text_6">
      <!-- NEUGEBAUER ALIMENTOS S/A. -->
      <g transform="translate(273.507925 267.01294) rotate(-45) scale(0.1 -0.1)">
       <defs>
        <path id="DejaVuSans-47" d="M 3809 666 
L 3809 1919 
L 2778 1919 
L 2778 2438 
L 4434 2438 
L 4434 434 
Q 4069 175 3628 42 
Q 3188 -91 2688 -91 
Q 1594 -91 976 548 
Q 359 1188 359 2328 
Q 359 3472 976 4111 
Q 1594 4750 2688 4750 
Q 3144 4750 3555 4637 
Q 3966 4525 4313 4306 
L 4313 3634 
Q 3963 3931 3569 4081 
Q 3175 4231 2741 4231 
Q 1884 4231 1454 3753 
Q 1025 3275 1025 2328 
Q 1025 1384 1454 906 
Q 1884 428 2741 428 
Q 3075 428 3337 486 
Q 3600 544 3809 666 
z
" transform="scale(0.015625)"/>
       </defs>
       <use xlink:href="#DejaVuSans-4e"/>
       <use xlink:href="#DejaVuSans-45" x="74.804688"/>
       <use xlink:href="#DejaVuSans-55" x="137.988281"/>
       <use xlink:href="#DejaVuSans-47" x="211.181641"/>
       <use xlink:href="#DejaVuSans-45" x="288.671875"/>
       <use xlink:href="#DejaVuSans-42" x="351.855469"/>
       <use xlink:href="#DejaVuSans-41" x="420.458984"/>
       <use xlink:href="#DejaVuSans-55" x="488.867188"/>
       <use xlink:href="#DejaVuSans-45" x="562.060547"/>
       <use xlink:href="#DejaVuSans-52" x="625.244141"/>
       <use xlink:href="#DejaVuSans-20" x="694.726562"/>
       <use xlink:href="#DejaVuSans-41" x="726.513672"/>
       <use xlink:href="#DejaVuSans-4c" x="794.921875"/>
       <use xlink:href="#DejaVuSans-49" x="850.634766"/>
       <use xlink:href="#DejaVuSans-4d" x="880.126953"/>
       <use xlink:href="#DejaVuSans-45" x="966.40625"/>
       <use xlink:href="#DejaVuSans-4e" x="1029.589844"/>
       <use xlink:href="#DejaVuSans-54" x="1104.394531"/>
       <use xlink:href="#DejaVuSans-4f" x="1165.478516"/>
       <use xlink:href="#DejaVuSans-53" x="1244.189453"/>
       <use xlink:href="#DejaVuSans-20" x="1307.666016"/>
       <use xlink:href="#DejaVuSans-53" x="1339.453125"/>
       <use xlink:href="#DejaVuSans-2f" x="1402.929688"/>
       <use xlink:href="#DejaVuSans-41" x="1436.621094"/>
       <use xlink:href="#DejaVuSans-2e" x="1503.279297"/>
      </g>
     </g>
    </g>
    <g id="xtick_7">
     <g id="line2d_7">
      <g>
       <use xlink:href="#m3fcf66bdab" x="364.039627" y="146.092513" style="stroke: #000000; stroke-width: 0.8"/>
      </g>
     </g>
     <g id="text_7">
      <!-- WARBEL DO BRASIL IND. E COM. LTDA (NORDESTE) -->
      <g transform="translate(275.242484 339.962053) rotate(-45) scale(0.1 -0.1)">
       <defs>
        <path id="DejaVuSans-28" d="M 1984 4856 
Q 1566 4138 1362 3434 
Q 1159 2731 1159 2009 
Q 1159 1288 1364 580 
Q 1569 -128 1984 -844 
L 1484 -844 
Q 1016 -109 783 600 
Q 550 1309 550 2009 
Q 550 2706 781 3412 
Q 1013 4119 1484 4856 
L 1984 4856 
z
" transform="scale(0.015625)"/>
        <path id="DejaVuSans-29" d="M 513 4856 
L 1013 4856 
Q 1481 4119 1714 3412 
Q 1947 2706 1947 2009 
Q 1947 1309 1714 600 
Q 1481 -109 1013 -844 
L 513 -844 
Q 928 -128 1133 580 
Q 1338 1288 1338 2009 
Q 1338 2731 1133 3434 
Q 928 4138 513 4856 
z
" transform="scale(0.015625)"/>
       </defs>
       <use xlink:href="#DejaVuSans-57"/>
       <use xlink:href="#DejaVuSans-41" x="93.376953"/>
       <use xlink:href="#DejaVuSans-52" x="161.785156"/>
       <use xlink:href="#DejaVuSans-42" x="231.267578"/>
       <use xlink:href="#DejaVuSans-45" x="299.871094"/>
       <use xlink:href="#DejaVuSans-4c" x="363.054688"/>
       <use xlink:href="#DejaVuSans-20" x="418.767578"/>
       <use xlink:href="#DejaVuSans-44" x="450.554688"/>
       <use xlink:href="#DejaVuSans-4f" x="527.556641"/>
       <use xlink:href="#DejaVuSans-20" x="606.267578"/>
       <use xlink:href="#DejaVuSans-42" x="638.054688"/>
       <use xlink:href="#DejaVuSans-52" x="706.658203"/>
       <use xlink:href="#DejaVuSans-41" x="772.140625"/>
       <use xlink:href="#DejaVuSans-53" x="840.548828"/>
       <use xlink:href="#DejaVuSans-49" x="904.025391"/>
       <use xlink:href="#DejaVuSans-4c" x="933.517578"/>
       <use xlink:href="#DejaVuSans-20" x="989.230469"/>
       <use xlink:href="#DejaVuSans-49" x="1021.017578"/>
       <use xlink:href="#DejaVuSans-4e" x="1050.509766"/>
       <use xlink:href="#DejaVuSans-44" x="1125.314453"/>
       <use xlink:href="#DejaVuSans-2e" x="1202.316406"/>
       <use xlink:href="#DejaVuSans-20" x="1234.103516"/>
       <use xlink:href="#DejaVuSans-45" x="1265.890625"/>
       <use xlink:href="#DejaVuSans-20" x="1329.074219"/>
       <use xlink:href="#DejaVuSans-43" x="1360.861328"/>
       <use xlink:href="#DejaVuSans-4f" x="1430.685547"/>
       <use xlink:href="#DejaVuSans-4d" x="1509.396484"/>
       <use xlink:href="#DejaVuSans-2e" x="1595.675781"/>
       <use xlink:href="#DejaVuSans-20" x="1627.462891"/>
       <use xlink:href="#DejaVuSans-4c" x="1659.25"/>
       <use xlink:href="#DejaVuSans-54" x="1701.212891"/>
       <use xlink:href="#DejaVuSans-44" x="1762.296875"/>
       <use xlink:href="#DejaVuSans-41" x="1837.548828"/>
       <use xlink:href="#DejaVuSans-20" x="1905.957031"/>
       <use xlink:href="#DejaVuSans-28" x="1937.744141"/>
       <use xlink:href="#DejaVuSans-4e" x="1976.757812"/>
       <use xlink:href="#DejaVuSans-4f" x="2051.5625"/>
       <use xlink:href="#DejaVuSans-52" x="2130.273438"/>
       <use xlink:href="#DejaVuSans-44" x="2199.755859"/>
       <use xlink:href="#DejaVuSans-45" x="2276.757812"/>
       <use xlink:href="#DejaVuSans-53" x="2339.941406"/>
       <use xlink:href="#DejaVuSans-54" x="2403.417969"/>
       <use xlink:href="#DejaVuSans-45" x="2464.501953"/>
       <use xlink:href="#DejaVuSans-29" x="2527.685547"/>
      </g>
     </g>
    </g>
    <g id="xtick_8">
     <g id="line2d_8">
      <g>
       <use xlink:href="#m3fcf66bdab" x="402.248742" y="146.092513" style="stroke: #000000; stroke-width: 0.8"/>
      </g>
     </g>
     <g id="text_8">
      <!-- VARPE BRASIL TECNOLOGIA EM INSPEÇÃO E PE. -->
      <g transform="translate(320.084039 328.730104) rotate(-45) scale(0.1 -0.1)">
       <defs>
        <path id="DejaVuSans-c7" d="M 4122 4306 
L 4122 3641 
Q 3803 3938 3442 4084 
Q 3081 4231 2675 4231 
Q 1875 4231 1450 3742 
Q 1025 3253 1025 2328 
Q 1025 1406 1450 917 
Q 1875 428 2675 428 
Q 3081 428 3442 575 
Q 3803 722 4122 1019 
L 4122 359 
Q 3791 134 3420 21 
Q 3050 -91 2638 -91 
Q 1578 -91 968 557 
Q 359 1206 359 2328 
Q 359 3453 968 4101 
Q 1578 4750 2638 4750 
Q 3056 4750 3426 4639 
Q 3797 4528 4122 4306 
z
M 2807 0 
Q 2978 -194 3062 -358 
Q 3147 -522 3147 -672 
Q 3147 -950 2959 -1092 
Q 2772 -1234 2403 -1234 
Q 2260 -1234 2124 -1215 
Q 1988 -1197 1853 -1159 
L 1853 -750 
Q 1960 -803 2075 -826 
Q 2191 -850 2338 -850 
Q 2522 -850 2616 -775 
Q 2710 -700 2710 -556 
Q 2710 -463 2642 -327 
Q 2575 -191 2435 0 
L 2807 0 
z
" transform="scale(0.015625)"/>
       </defs>
       <use xlink:href="#DejaVuSans-56"/>
       <use xlink:href="#DejaVuSans-41" x="62.033203"/>
       <use xlink:href="#DejaVuSans-52" x="130.441406"/>
       <use xlink:href="#DejaVuSans-50" x="199.923828"/>
       <use xlink:href="#DejaVuSans-45" x="260.226562"/>
       <use xlink:href="#DejaVuSans-20" x="323.410156"/>
       <use xlink:href="#DejaVuSans-42" x="355.197266"/>
       <use xlink:href="#DejaVuSans-52" x="423.800781"/>
       <use xlink:href="#DejaVuSans-41" x="489.283203"/>
       <use xlink:href="#DejaVuSans-53" x="557.691406"/>
       <use xlink:href="#DejaVuSans-49" x="621.167969"/>
       <use xlink:href="#DejaVuSans-4c" x="650.660156"/>
       <use xlink:href="#DejaVuSans-20" x="706.373047"/>
       <use xlink:href="#DejaVuSans-54" x="738.160156"/>
       <use xlink:href="#DejaVuSans-45" x="799.244141"/>
       <use xlink:href="#DejaVuSans-43" x="862.427734"/>
       <use xlink:href="#DejaVuSans-4e" x="932.251953"/>
       <use xlink:href="#DejaVuSans-4f" x="1007.056641"/>
       <use xlink:href="#DejaVuSans-4c" x="1085.767578"/>
       <use xlink:href="#DejaVuSans-4f" x="1137.855469"/>
       <use xlink:href="#DejaVuSans-47" x="1216.566406"/>
       <use xlink:href="#DejaVuSans-49" x="1294.056641"/>
       <use xlink:href="#DejaVuSans-41" x="1323.548828"/>
       <use xlink:href="#DejaVuSans-20" x="1391.957031"/>
       <use xlink:href="#DejaVuSans-45" x="1423.744141"/>
       <use xlink:href="#DejaVuSans-4d" x="1486.927734"/>
       <use xlink:href="#DejaVuSans-20" x="1573.207031"/>
       <use xlink:href="#DejaVuSans-49" x="1604.994141"/>
       <use xlink:href="#DejaVuSans-4e" x="1634.486328"/>
       <use xlink:href="#DejaVuSans-53" x="1709.291016"/>
       <use xlink:href="#DejaVuSans-50" x="1772.767578"/>
       <use xlink:href="#DejaVuSans-45" x="1833.070312"/>
       <use xlink:href="#DejaVuSans-c7" x="1896.253906"/>
       <use xlink:href="#DejaVuSans-c3" x="1966.078125"/>
       <use xlink:href="#DejaVuSans-4f" x="2032.736328"/>
       <use xlink:href="#DejaVuSans-20" x="2111.447266"/>
       <use xlink:href="#DejaVuSans-45" x="2143.234375"/>
       <use xlink:href="#DejaVuSans-20" x="2206.417969"/>
       <use xlink:href="#DejaVuSans-50" x="2238.205078"/>
       <use xlink:href="#DejaVuSans-45" x="2298.507812"/>
       <use xlink:href="#DejaVuSans-2e" x="2361.691406"/>
      </g>
     </g>
    </g>
    <g id="xtick_9">
     <g id="line2d_9">
      <g>
       <use xlink:href="#m3fcf66bdab" x="440.457857" y="146.092513" style="stroke: #000000; stroke-width: 0.8"/>
      </g>
     </g>
     <g id="text_9">
      <!-- GONÇALVES S/A INDUSTRIA GRÁFICA -->
      <g transform="translate(377.424812 290.557386) rotate(-45) scale(0.1 -0.1)">
       <defs>
        <path id="DejaVuSans-c1" d="M 2188 4044 
L 1331 1722 
L 3047 1722 
L 2188 4044 
z
M 1831 4666 
L 2547 4666 
L 4325 0 
L 3669 0 
L 3244 1197 
L 1141 1197 
L 716 0 
L 50 0 
L 1831 4666 
z
M 2356 5921 
L 2934 5921 
L 2222 5096 
L 1743 5096 
L 2356 5921 
z
" transform="scale(0.015625)"/>
       </defs>
       <use xlink:href="#DejaVuSans-47"/>
       <use xlink:href="#DejaVuSans-4f" x="77.490234"/>
       <use xlink:href="#DejaVuSans-4e" x="156.201172"/>
       <use xlink:href="#DejaVuSans-c7" x="231.005859"/>
       <use xlink:href="#DejaVuSans-41" x="300.830078"/>
       <use xlink:href="#DejaVuSans-4c" x="369.238281"/>
       <use xlink:href="#DejaVuSans-56" x="413.951172"/>
       <use xlink:href="#DejaVuSans-45" x="482.359375"/>
       <use xlink:href="#DejaVuSans-53" x="545.542969"/>
       <use xlink:href="#DejaVuSans-20" x="609.019531"/>
       <use xlink:href="#DejaVuSans-53" x="640.806641"/>
       <use xlink:href="#DejaVuSans-2f" x="704.283203"/>
       <use xlink:href="#DejaVuSans-41" x="737.974609"/>
       <use xlink:href="#DejaVuSans-20" x="806.382812"/>
       <use xlink:href="#DejaVuSans-49" x="838.169922"/>
       <use xlink:href="#DejaVuSans-4e" x="867.662109"/>
       <use xlink:href="#DejaVuSans-44" x="942.466797"/>
       <use xlink:href="#DejaVuSans-55" x="1019.46875"/>
       <use xlink:href="#DejaVuSans-53" x="1092.662109"/>
       <use xlink:href="#DejaVuSans-54" x="1156.138672"/>
       <use xlink:href="#DejaVuSans-52" x="1217.222656"/>
       <use xlink:href="#DejaVuSans-49" x="1286.705078"/>
       <use xlink:href="#DejaVuSans-41" x="1316.197266"/>
       <use xlink:href="#DejaVuSans-20" x="1384.605469"/>
       <use xlink:href="#DejaVuSans-47" x="1416.392578"/>
       <use xlink:href="#DejaVuSans-52" x="1493.882812"/>
       <use xlink:href="#DejaVuSans-c1" x="1559.365234"/>
       <use xlink:href="#DejaVuSans-46" x="1627.773438"/>
       <use xlink:href="#DejaVuSans-49" x="1685.292969"/>
       <use xlink:href="#DejaVuSans-43" x="1714.785156"/>
       <use xlink:href="#DejaVuSans-41" x="1784.609375"/>
      </g>
     </g>
    </g>
    <g id="xtick_10">
     <g id="line2d_10">
      <g>
       <use xlink:href="#m3fcf66bdab" x="478.666972" y="146.092513" style="stroke: #000000; stroke-width: 0.8"/>
      </g>
     </g>
     <g id="text_10">
      <!-- EUROFRAL INDUSTRIA DE PRODUTOS HIGIENICO -->
      <g transform="translate(394.521817 330.658075) rotate(-45) scale(0.1 -0.1)">
       <defs>
        <path id="DejaVuSans-48" d="M 628 4666 
L 1259 4666 
L 1259 2753 
L 3553 2753 
L 3553 4666 
L 4184 4666 
L 4184 0 
L 3553 0 
L 3553 2222 
L 1259 2222 
L 1259 0 
L 628 0 
L 628 4666 
z
" transform="scale(0.015625)"/>
       </defs>
       <use xlink:href="#DejaVuSans-45"/>
       <use xlink:href="#DejaVuSans-55" x="63.183594"/>
       <use xlink:href="#DejaVuSans-52" x="136.376953"/>
       <use xlink:href="#DejaVuSans-4f" x="205.859375"/>
       <use xlink:href="#DejaVuSans-46" x="284.570312"/>
       <use xlink:href="#DejaVuSans-52" x="342.089844"/>
       <use xlink:href="#DejaVuSans-41" x="407.572266"/>
       <use xlink:href="#DejaVuSans-4c" x="475.980469"/>
       <use xlink:href="#DejaVuSans-20" x="531.693359"/>
       <use xlink:href="#DejaVuSans-49" x="563.480469"/>
       <use xlink:href="#DejaVuSans-4e" x="592.972656"/>
       <use xlink:href="#DejaVuSans-44" x="667.777344"/>
       <use xlink:href="#DejaVuSans-55" x="744.779297"/>
       <use xlink:href="#DejaVuSans-53" x="817.972656"/>
       <use xlink:href="#DejaVuSans-54" x="881.449219"/>
       <use xlink:href="#DejaVuSans-52" x="942.533203"/>
       <use xlink:href="#DejaVuSans-49" x="1012.015625"/>
       <use xlink:href="#DejaVuSans-41" x="1041.507812"/>
       <use xlink:href="#DejaVuSans-20" x="1109.916016"/>
       <use xlink:href="#DejaVuSans-44" x="1141.703125"/>
       <use xlink:href="#DejaVuSans-45" x="1218.705078"/>
       <use xlink:href="#DejaVuSans-20" x="1281.888672"/>
       <use xlink:href="#DejaVuSans-50" x="1313.675781"/>
       <use xlink:href="#DejaVuSans-52" x="1373.978516"/>
       <use xlink:href="#DejaVuSans-4f" x="1443.460938"/>
       <use xlink:href="#DejaVuSans-44" x="1522.171875"/>
       <use xlink:href="#DejaVuSans-55" x="1599.173828"/>
       <use xlink:href="#DejaVuSans-54" x="1672.367188"/>
       <use xlink:href="#DejaVuSans-4f" x="1733.451172"/>
       <use xlink:href="#DejaVuSans-53" x="1812.162109"/>
       <use xlink:href="#DejaVuSans-20" x="1875.638672"/>
       <use xlink:href="#DejaVuSans-48" x="1907.425781"/>
       <use xlink:href="#DejaVuSans-49" x="1982.621094"/>
       <use xlink:href="#DejaVuSans-47" x="2012.113281"/>
       <use xlink:href="#DejaVuSans-49" x="2089.603516"/>
       <use xlink:href="#DejaVuSans-45" x="2119.095703"/>
       <use xlink:href="#DejaVuSans-4e" x="2182.279297"/>
       <use xlink:href="#DejaVuSans-49" x="2257.083984"/>
       <use xlink:href="#DejaVuSans-43" x="2286.576172"/>
       <use xlink:href="#DejaVuSans-4f" x="2356.400391"/>
      </g>
     </g>
    </g>
    <g id="text_11">
     <!-- Categoría -->
     <g transform="translate(282.39158 418.843953) scale(0.1 -0.1)">
      <defs>
       <path id="DejaVuSans-61" d="M 2194 1759 
Q 1497 1759 1228 1600 
Q 959 1441 959 1056 
Q 959 750 1161 570 
Q 1363 391 1709 391 
Q 2188 391 2477 730 
Q 2766 1069 2766 1631 
L 2766 1759 
L 2194 1759 
z
M 3341 1997 
L 3341 0 
L 2766 0 
L 2766 531 
Q 2569 213 2275 61 
Q 1981 -91 1556 -91 
Q 1019 -91 701 211 
Q 384 513 384 1019 
Q 384 1609 779 1909 
Q 1175 2209 1959 2209 
L 2766 2209 
L 2766 2266 
Q 2766 2663 2505 2880 
Q 2244 3097 1772 3097 
Q 1472 3097 1187 3025 
Q 903 2953 641 2809 
L 641 3341 
Q 956 3463 1253 3523 
Q 1550 3584 1831 3584 
Q 2591 3584 2966 3190 
Q 3341 2797 3341 1997 
z
" transform="scale(0.015625)"/>
       <path id="DejaVuSans-74" d="M 1172 4494 
L 1172 3500 
L 2356 3500 
L 2356 3053 
L 1172 3053 
L 1172 1153 
Q 1172 725 1289 603 
Q 1406 481 1766 481 
L 2356 481 
L 2356 0 
L 1766 0 
Q 1100 0 847 248 
Q 594 497 594 1153 
L 594 3053 
L 172 3053 
L 172 3500 
L 594 3500 
L 594 4494 
L 1172 4494 
z
" transform="scale(0.015625)"/>
       <path id="DejaVuSans-65" d="M 3597 1894 
L 3597 1613 
L 953 1613 
Q 991 1019 1311 708 
Q 1631 397 2203 397 
Q 2534 397 2845 478 
Q 3156 559 3463 722 
L 3463 178 
Q 3153 47 2828 -22 
Q 2503 -91 2169 -91 
Q 1331 -91 842 396 
Q 353 884 353 1716 
Q 353 2575 817 3079 
Q 1281 3584 2069 3584 
Q 2775 3584 3186 3129 
Q 3597 2675 3597 1894 
z
M 3022 2063 
Q 3016 2534 2758 2815 
Q 2500 3097 2075 3097 
Q 1594 3097 1305 2825 
Q 1016 2553 972 2059 
L 3022 2063 
z
" transform="scale(0.015625)"/>
       <path id="DejaVuSans-67" d="M 2906 1791 
Q 2906 2416 2648 2759 
Q 2391 3103 1925 3103 
Q 1463 3103 1205 2759 
Q 947 2416 947 1791 
Q 947 1169 1205 825 
Q 1463 481 1925 481 
Q 2391 481 2648 825 
Q 2906 1169 2906 1791 
z
M 3481 434 
Q 3481 -459 3084 -895 
Q 2688 -1331 1869 -1331 
Q 1566 -1331 1297 -1286 
Q 1028 -1241 775 -1147 
L 775 -588 
Q 1028 -725 1275 -790 
Q 1522 -856 1778 -856 
Q 2344 -856 2625 -561 
Q 2906 -266 2906 331 
L 2906 616 
Q 2728 306 2450 153 
Q 2172 0 1784 0 
Q 1141 0 747 490 
Q 353 981 353 1791 
Q 353 2603 747 3093 
Q 1141 3584 1784 3584 
Q 2172 3584 2450 3431 
Q 2728 3278 2906 2969 
L 2906 3500 
L 3481 3500 
L 3481 434 
z
" transform="scale(0.015625)"/>
       <path id="DejaVuSans-6f" d="M 1959 3097 
Q 1497 3097 1228 2736 
Q 959 2375 959 1747 
Q 959 1119 1226 758 
Q 1494 397 1959 397 
Q 2419 397 2687 759 
Q 2956 1122 2956 1747 
Q 2956 2369 2687 2733 
Q 2419 3097 1959 3097 
z
M 1959 3584 
Q 2709 3584 3137 3096 
Q 3566 2609 3566 1747 
Q 3566 888 3137 398 
Q 2709 -91 1959 -91 
Q 1206 -91 779 398 
Q 353 888 353 1747 
Q 353 2609 779 3096 
Q 1206 3584 1959 3584 
z
" transform="scale(0.015625)"/>
       <path id="DejaVuSans-72" d="M 2631 2963 
Q 2534 3019 2420 3045 
Q 2306 3072 2169 3072 
Q 1681 3072 1420 2755 
Q 1159 2438 1159 1844 
L 1159 0 
L 581 0 
L 581 3500 
L 1159 3500 
L 1159 2956 
Q 1341 3275 1631 3429 
Q 1922 3584 2338 3584 
Q 2397 3584 2469 3576 
Q 2541 3569 2628 3553 
L 2631 2963 
z
" transform="scale(0.015625)"/>
       <path id="DejaVuSans-ed" d="M 1322 5119 
L 1944 5119 
L 926 3944 
L 447 3944 
L 1322 5119 
z
M 603 3500 
L 1178 3500 
L 1178 0 
L 603 0 
L 603 3500 
z
M 891 3584 
L 891 3584 
z
" transform="scale(0.015625)"/>
      </defs>
      <use xlink:href="#DejaVuSans-43"/>
      <use xlink:href="#DejaVuSans-61" x="69.824219"/>
      <use xlink:href="#DejaVuSans-74" x="131.103516"/>
      <use xlink:href="#DejaVuSans-65" x="170.3125"/>
      <use xlink:href="#DejaVuSans-67" x="231.835938"/>
      <use xlink:href="#DejaVuSans-6f" x="295.3125"/>
      <use xlink:href="#DejaVuSans-72" x="356.494141"/>
      <use xlink:href="#DejaVuSans-ed" x="397.607422"/>
      <use xlink:href="#DejaVuSans-61" x="425.390625"/>
     </g>
    </g>
   </g>
   <g id="matplotlib.axis_2">
    <g id="ytick_1">
     <g id="line2d_11">
      <defs>
       <path id="me9dba2e79e" d="M 0 0 
L -3.5 0 
" style="stroke: #000000; stroke-width: 0.8"/>
      </defs>
      <g>
       <use xlink:href="#me9dba2e79e" x="100.778827" y="146.092513" style="stroke: #000000; stroke-width: 0.8"/>
      </g>
     </g>
     <g id="text_12">
      <!-- 0 -->
      <g transform="translate(87.416327 149.891732) scale(0.1 -0.1)">
       <defs>
        <path id="DejaVuSans-30" d="M 2034 4250 
Q 1547 4250 1301 3770 
Q 1056 3291 1056 2328 
Q 1056 1369 1301 889 
Q 1547 409 2034 409 
Q 2525 409 2770 889 
Q 3016 1369 3016 2328 
Q 3016 3291 2770 3770 
Q 2525 4250 2034 4250 
z
M 2034 4750 
Q 2819 4750 3233 4129 
Q 3647 3509 3647 2328 
Q 3647 1150 3233 529 
Q 2819 -91 2034 -91 
Q 1250 -91 836 529 
Q 422 1150 422 2328 
Q 422 3509 836 4129 
Q 1250 4750 2034 4750 
z
" transform="scale(0.015625)"/>
       </defs>
       <use xlink:href="#DejaVuSans-30"/>
      </g>
     </g>
    </g>
    <g id="ytick_2">
     <g id="line2d_12">
      <g>
       <use xlink:href="#me9dba2e79e" x="100.778827" y="111.372108" style="stroke: #000000; stroke-width: 0.8"/>
      </g>
     </g>
     <g id="text_13">
      <!-- 100 -->
      <g transform="translate(74.691327 115.171326) scale(0.1 -0.1)">
       <defs>
        <path id="DejaVuSans-31" d="M 794 531 
L 1825 531 
L 1825 4091 
L 703 3866 
L 703 4441 
L 1819 4666 
L 2450 4666 
L 2450 531 
L 3481 531 
L 3481 0 
L 794 0 
L 794 531 
z
" transform="scale(0.015625)"/>
       </defs>
       <use xlink:href="#DejaVuSans-31"/>
       <use xlink:href="#DejaVuSans-30" x="63.623047"/>
       <use xlink:href="#DejaVuSans-30" x="127.246094"/>
      </g>
     </g>
    </g>
    <g id="ytick_3">
     <g id="line2d_13">
      <g>
       <use xlink:href="#me9dba2e79e" x="100.778827" y="76.651702" style="stroke: #000000; stroke-width: 0.8"/>
      </g>
     </g>
     <g id="text_14">
      <!-- 200 -->
      <g transform="translate(74.691327 80.45092) scale(0.1 -0.1)">
       <defs>
        <path id="DejaVuSans-32" d="M 1228 531 
L 3431 531 
L 3431 0 
L 469 0 
L 469 531 
Q 828 903 1448 1529 
Q 2069 2156 2228 2338 
Q 2531 2678 2651 2914 
Q 2772 3150 2772 3378 
Q 2772 3750 2511 3984 
Q 2250 4219 1831 4219 
Q 1534 4219 1204 4116 
Q 875 4013 500 3803 
L 500 4441 
Q 881 4594 1212 4672 
Q 1544 4750 1819 4750 
Q 2544 4750 2975 4387 
Q 3406 4025 3406 3419 
Q 3406 3131 3298 2873 
Q 3191 2616 2906 2266 
Q 2828 2175 2409 1742 
Q 1991 1309 1228 531 
z
" transform="scale(0.015625)"/>
       </defs>
       <use xlink:href="#DejaVuSans-32"/>
       <use xlink:href="#DejaVuSans-30" x="63.623047"/>
       <use xlink:href="#DejaVuSans-30" x="127.246094"/>
      </g>
     </g>
    </g>
    <g id="ytick_4">
     <g id="line2d_14">
      <g>
       <use xlink:href="#me9dba2e79e" x="100.778827" y="41.931296" style="stroke: #000000; stroke-width: 0.8"/>
      </g>
     </g>
     <g id="text_15">
      <!-- 300 -->
      <g transform="translate(74.691327 45.730515) scale(0.1 -0.1)">
       <defs>
        <path id="DejaVuSans-33" d="M 2597 2516 
Q 3050 2419 3304 2112 
Q 3559 1806 3559 1356 
Q 3559 666 3084 287 
Q 2609 -91 1734 -91 
Q 1441 -91 1130 -33 
Q 819 25 488 141 
L 488 750 
Q 750 597 1062 519 
Q 1375 441 1716 441 
Q 2309 441 2620 675 
Q 2931 909 2931 1356 
Q 2931 1769 2642 2001 
Q 2353 2234 1838 2234 
L 1294 2234 
L 1294 2753 
L 1863 2753 
Q 2328 2753 2575 2939 
Q 2822 3125 2822 3475 
Q 2822 3834 2567 4026 
Q 2313 4219 1838 4219 
Q 1578 4219 1281 4162 
Q 984 4106 628 3988 
L 628 4550 
Q 988 4650 1302 4700 
Q 1616 4750 1894 4750 
Q 2613 4750 3031 4423 
Q 3450 4097 3450 3541 
Q 3450 3153 3228 2886 
Q 3006 2619 2597 2516 
z
" transform="scale(0.015625)"/>
       </defs>
       <use xlink:href="#DejaVuSans-33"/>
       <use xlink:href="#DejaVuSans-30" x="63.623047"/>
       <use xlink:href="#DejaVuSans-30" x="127.246094"/>
      </g>
     </g>
    </g>
    <g id="text_16">
     <!-- Cantidad -->
     <g transform="translate(68.611639 108.972194) rotate(-90) scale(0.1 -0.1)">
      <defs>
       <path id="DejaVuSans-6e" d="M 3513 2113 
L 3513 0 
L 2938 0 
L 2938 2094 
Q 2938 2591 2744 2837 
Q 2550 3084 2163 3084 
Q 1697 3084 1428 2787 
Q 1159 2491 1159 1978 
L 1159 0 
L 581 0 
L 581 3500 
L 1159 3500 
L 1159 2956 
Q 1366 3272 1645 3428 
Q 1925 3584 2291 3584 
Q 2894 3584 3203 3211 
Q 3513 2838 3513 2113 
z
" transform="scale(0.015625)"/>
       <path id="DejaVuSans-69" d="M 603 3500 
L 1178 3500 
L 1178 0 
L 603 0 
L 603 3500 
z
M 603 4863 
L 1178 4863 
L 1178 4134 
L 603 4134 
L 603 4863 
z
" transform="scale(0.015625)"/>
       <path id="DejaVuSans-64" d="M 2906 2969 
L 2906 4863 
L 3481 4863 
L 3481 0 
L 2906 0 
L 2906 525 
Q 2725 213 2448 61 
Q 2172 -91 1784 -91 
Q 1150 -91 751 415 
Q 353 922 353 1747 
Q 353 2572 751 3078 
Q 1150 3584 1784 3584 
Q 2172 3584 2448 3432 
Q 2725 3281 2906 2969 
z
M 947 1747 
Q 947 1113 1208 752 
Q 1469 391 1925 391 
Q 2381 391 2643 752 
Q 2906 1113 2906 1747 
Q 2906 2381 2643 2742 
Q 2381 3103 1925 3103 
Q 1469 3103 1208 2742 
Q 947 2381 947 1747 
z
" transform="scale(0.015625)"/>
      </defs>
      <use xlink:href="#DejaVuSans-43"/>
      <use xlink:href="#DejaVuSans-61" x="69.824219"/>
      <use xlink:href="#DejaVuSans-6e" x="131.103516"/>
      <use xlink:href="#DejaVuSans-74" x="194.482422"/>
      <use xlink:href="#DejaVuSans-69" x="233.691406"/>
      <use xlink:href="#DejaVuSans-64" x="261.474609"/>
      <use xlink:href="#DejaVuSans-61" x="324.951172"/>
      <use xlink:href="#DejaVuSans-64" x="386.230469"/>
     </g>
    </g>
   </g>
   <g id="patch_13">
    <path d="M 100.778827 146.092513 
L 100.778827 26.88 
" style="fill: none; stroke: #000000; stroke-width: 0.8; stroke-linejoin: miter; stroke-linecap: square"/>
   </g>
   <g id="patch_14">
    <path d="M 512.673084 146.092513 
L 512.673084 26.88 
" style="fill: none; stroke: #000000; stroke-width: 0.8; stroke-linejoin: miter; stroke-linecap: square"/>
   </g>
   <g id="patch_15">
    <path d="M 100.778827 146.092513 
L 512.673084 146.092513 
" style="fill: none; stroke: #000000; stroke-width: 0.8; stroke-linejoin: miter; stroke-linecap: square"/>
   </g>
   <g id="patch_16">
    <path d="M 100.778827 26.88 
L 512.673084 26.88 
" style="fill: none; stroke: #000000; stroke-width: 0.8; stroke-linejoin: miter; stroke-linecap: square"/>
   </g>
   <g id="text_17">
    <!-- Ranking dos 10 melhores clientes do ano 2024 por quantidade de pedidos -->
    <g transform="translate(83.091893 20.88) scale(0.12 -0.12)">
     <defs>
      <path id="DejaVuSans-6b" d="M 581 4863 
L 1159 4863 
L 1159 1991 
L 2875 3500 
L 3609 3500 
L 1753 1863 
L 3688 0 
L 2938 0 
L 1159 1709 
L 1159 0 
L 581 0 
L 581 4863 
z
" transform="scale(0.015625)"/>
      <path id="DejaVuSans-73" d="M 2834 3397 
L 2834 2853 
Q 2591 2978 2328 3040 
Q 2066 3103 1784 3103 
Q 1356 3103 1142 2972 
Q 928 2841 928 2578 
Q 928 2378 1081 2264 
Q 1234 2150 1697 2047 
L 1894 2003 
Q 2506 1872 2764 1633 
Q 3022 1394 3022 966 
Q 3022 478 2636 193 
Q 2250 -91 1575 -91 
Q 1294 -91 989 -36 
Q 684 19 347 128 
L 347 722 
Q 666 556 975 473 
Q 1284 391 1588 391 
Q 1994 391 2212 530 
Q 2431 669 2431 922 
Q 2431 1156 2273 1281 
Q 2116 1406 1581 1522 
L 1381 1569 
Q 847 1681 609 1914 
Q 372 2147 372 2553 
Q 372 3047 722 3315 
Q 1072 3584 1716 3584 
Q 2034 3584 2315 3537 
Q 2597 3491 2834 3397 
z
" transform="scale(0.015625)"/>
      <path id="DejaVuSans-6d" d="M 3328 2828 
Q 3544 3216 3844 3400 
Q 4144 3584 4550 3584 
Q 5097 3584 5394 3201 
Q 5691 2819 5691 2113 
L 5691 0 
L 5113 0 
L 5113 2094 
Q 5113 2597 4934 2840 
Q 4756 3084 4391 3084 
Q 3944 3084 3684 2787 
Q 3425 2491 3425 1978 
L 3425 0 
L 2847 0 
L 2847 2094 
Q 2847 2600 2669 2842 
Q 2491 3084 2119 3084 
Q 1678 3084 1418 2786 
Q 1159 2488 1159 1978 
L 1159 0 
L 581 0 
L 581 3500 
L 1159 3500 
L 1159 2956 
Q 1356 3278 1631 3431 
Q 1906 3584 2284 3584 
Q 2666 3584 2933 3390 
Q 3200 3197 3328 2828 
z
" transform="scale(0.015625)"/>
      <path id="DejaVuSans-6c" d="M 603 4863 
L 1178 4863 
L 1178 0 
L 603 0 
L 603 4863 
z
" transform="scale(0.015625)"/>
      <path id="DejaVuSans-68" d="M 3513 2113 
L 3513 0 
L 2938 0 
L 2938 2094 
Q 2938 2591 2744 2837 
Q 2550 3084 2163 3084 
Q 1697 3084 1428 2787 
Q 1159 2491 1159 1978 
L 1159 0 
L 581 0 
L 581 4863 
L 1159 4863 
L 1159 2956 
Q 1366 3272 1645 3428 
Q 1925 3584 2291 3584 
Q 2894 3584 3203 3211 
Q 3513 2838 3513 2113 
z
" transform="scale(0.015625)"/>
      <path id="DejaVuSans-63" d="M 3122 3366 
L 3122 2828 
Q 2878 2963 2633 3030 
Q 2388 3097 2138 3097 
Q 1578 3097 1268 2742 
Q 959 2388 959 1747 
Q 959 1106 1268 751 
Q 1578 397 2138 397 
Q 2388 397 2633 464 
Q 2878 531 3122 666 
L 3122 134 
Q 2881 22 2623 -34 
Q 2366 -91 2075 -91 
Q 1284 -91 818 406 
Q 353 903 353 1747 
Q 353 2603 823 3093 
Q 1294 3584 2113 3584 
Q 2378 3584 2631 3529 
Q 2884 3475 3122 3366 
z
" transform="scale(0.015625)"/>
      <path id="DejaVuSans-34" d="M 2419 4116 
L 825 1625 
L 2419 1625 
L 2419 4116 
z
M 2253 4666 
L 3047 4666 
L 3047 1625 
L 3713 1625 
L 3713 1100 
L 3047 1100 
L 3047 0 
L 2419 0 
L 2419 1100 
L 313 1100 
L 313 1709 
L 2253 4666 
z
" transform="scale(0.015625)"/>
      <path id="DejaVuSans-70" d="M 1159 525 
L 1159 -1331 
L 581 -1331 
L 581 3500 
L 1159 3500 
L 1159 2969 
Q 1341 3281 1617 3432 
Q 1894 3584 2278 3584 
Q 2916 3584 3314 3078 
Q 3713 2572 3713 1747 
Q 3713 922 3314 415 
Q 2916 -91 2278 -91 
Q 1894 -91 1617 61 
Q 1341 213 1159 525 
z
M 3116 1747 
Q 3116 2381 2855 2742 
Q 2594 3103 2138 3103 
Q 1681 3103 1420 2742 
Q 1159 2381 1159 1747 
Q 1159 1113 1420 752 
Q 1681 391 2138 391 
Q 2594 391 2855 752 
Q 3116 1113 3116 1747 
z
" transform="scale(0.015625)"/>
      <path id="DejaVuSans-71" d="M 947 1747 
Q 947 1113 1208 752 
Q 1469 391 1925 391 
Q 2381 391 2643 752 
Q 2906 1113 2906 1747 
Q 2906 2381 2643 2742 
Q 2381 3103 1925 3103 
Q 1469 3103 1208 2742 
Q 947 2381 947 1747 
z
M 2906 525 
Q 2725 213 2448 61 
Q 2172 -91 1784 -91 
Q 1150 -91 751 415 
Q 353 922 353 1747 
Q 353 2572 751 3078 
Q 1150 3584 1784 3584 
Q 2172 3584 2448 3432 
Q 2725 3281 2906 2969 
L 2906 3500 
L 3481 3500 
L 3481 -1331 
L 2906 -1331 
L 2906 525 
z
" transform="scale(0.015625)"/>
      <path id="DejaVuSans-75" d="M 544 1381 
L 544 3500 
L 1119 3500 
L 1119 1403 
Q 1119 906 1312 657 
Q 1506 409 1894 409 
Q 2359 409 2629 706 
Q 2900 1003 2900 1516 
L 2900 3500 
L 3475 3500 
L 3475 0 
L 2900 0 
L 2900 538 
Q 2691 219 2414 64 
Q 2138 -91 1772 -91 
Q 1169 -91 856 284 
Q 544 659 544 1381 
z
M 1991 3584 
L 1991 3584 
z
" transform="scale(0.015625)"/>
     </defs>
     <use xlink:href="#DejaVuSans-52"/>
     <use xlink:href="#DejaVuSans-61" x="67.232422"/>
     <use xlink:href="#DejaVuSans-6e" x="128.511719"/>
     <use xlink:href="#DejaVuSans-6b" x="191.890625"/>
     <use xlink:href="#DejaVuSans-69" x="249.800781"/>
     <use xlink:href="#DejaVuSans-6e" x="277.583984"/>
     <use xlink:href="#DejaVuSans-67" x="340.962891"/>
     <use xlink:href="#DejaVuSans-20" x="404.439453"/>
     <use xlink:href="#DejaVuSans-64" x="436.226562"/>
     <use xlink:href="#DejaVuSans-6f" x="499.703125"/>
     <use xlink:href="#DejaVuSans-73" x="560.884766"/>
     <use xlink:href="#DejaVuSans-20" x="612.984375"/>
     <use xlink:href="#DejaVuSans-31" x="644.771484"/>
     <use xlink:href="#DejaVuSans-30" x="708.394531"/>
     <use xlink:href="#DejaVuSans-20" x="772.017578"/>
     <use xlink:href="#DejaVuSans-6d" x="803.804688"/>
     <use xlink:href="#DejaVuSans-65" x="901.216797"/>
     <use xlink:href="#DejaVuSans-6c" x="962.740234"/>
     <use xlink:href="#DejaVuSans-68" x="990.523438"/>
     <use xlink:href="#DejaVuSans-6f" x="1053.902344"/>
     <use xlink:href="#DejaVuSans-72" x="1115.083984"/>
     <use xlink:href="#DejaVuSans-65" x="1153.947266"/>
     <use xlink:href="#DejaVuSans-73" x="1215.470703"/>
     <use xlink:href="#DejaVuSans-20" x="1267.570312"/>
     <use xlink:href="#DejaVuSans-63" x="1299.357422"/>
     <use xlink:href="#DejaVuSans-6c" x="1354.337891"/>
     <use xlink:href="#DejaVuSans-69" x="1382.121094"/>
     <use xlink:href="#DejaVuSans-65" x="1409.904297"/>
     <use xlink:href="#DejaVuSans-6e" x="1471.427734"/>
     <use xlink:href="#DejaVuSans-74" x="1534.806641"/>
     <use xlink:href="#DejaVuSans-65" x="1574.015625"/>
     <use xlink:href="#DejaVuSans-73" x="1635.539062"/>
     <use xlink:href="#DejaVuSans-20" x="1687.638672"/>
     <use xlink:href="#DejaVuSans-64" x="1719.425781"/>
     <use xlink:href="#DejaVuSans-6f" x="1782.902344"/>
     <use xlink:href="#DejaVuSans-20" x="1844.083984"/>
     <use xlink:href="#DejaVuSans-61" x="1875.871094"/>
     <use xlink:href="#DejaVuSans-6e" x="1937.150391"/>
     <use xlink:href="#DejaVuSans-6f" x="2000.529297"/>
     <use xlink:href="#DejaVuSans-20" x="2061.710938"/>
     <use xlink:href="#DejaVuSans-32" x="2093.498047"/>
     <use xlink:href="#DejaVuSans-30" x="2157.121094"/>
     <use xlink:href="#DejaVuSans-32" x="2220.744141"/>
     <use xlink:href="#DejaVuSans-34" x="2284.367188"/>
     <use xlink:href="#DejaVuSans-20" x="2347.990234"/>
     <use xlink:href="#DejaVuSans-70" x="2379.777344"/>
     <use xlink:href="#DejaVuSans-6f" x="2443.253906"/>
     <use xlink:href="#DejaVuSans-72" x="2504.435547"/>
     <use xlink:href="#DejaVuSans-20" x="2545.548828"/>
     <use xlink:href="#DejaVuSans-71" x="2577.335938"/>
     <use xlink:href="#DejaVuSans-75" x="2640.8125"/>
     <use xlink:href="#DejaVuSans-61" x="2704.191406"/>
     <use xlink:href="#DejaVuSans-6e" x="2765.470703"/>
     <use xlink:href="#DejaVuSans-74" x="2828.849609"/>
     <use xlink:href="#DejaVuSans-69" x="2868.058594"/>
     <use xlink:href="#DejaVuSans-64" x="2895.841797"/>
     <use xlink:href="#DejaVuSans-61" x="2959.318359"/>
     <use xlink:href="#DejaVuSans-64" x="3020.597656"/>
     <use xlink:href="#DejaVuSans-65" x="3084.074219"/>
     <use xlink:href="#DejaVuSans-20" x="3145.597656"/>
     <use xlink:href="#DejaVuSans-64" x="3177.384766"/>
     <use xlink:href="#DejaVuSans-65" x="3240.861328"/>
     <use xlink:href="#DejaVuSans-20" x="3302.384766"/>
     <use xlink:href="#DejaVuSans-70" x="3334.171875"/>
     <use xlink:href="#DejaVuSans-65" x="3397.648438"/>
     <use xlink:href="#DejaVuSans-64" x="3459.171875"/>
     <use xlink:href="#DejaVuSans-69" x="3522.648438"/>
     <use xlink:href="#DejaVuSans-64" x="3550.431641"/>
     <use xlink:href="#DejaVuSans-6f" x="3613.908203"/>
     <use xlink:href="#DejaVuSans-73" x="3675.089844"/>
    </g>
   </g>
  </g>
 </g>
 <defs>
  <clipPath id="p6b94c80773">
   <rect x="100.778827" y="26.88" width="411.894257" height="119.212513"/>
  </clipPath>
 </defs>
</svg>
